<svg width="963" height="514" viewBox="0 0 963 514" fill="none" xmlns="http://www.w3.org/2000/svg">
<g opacity="0.32" filter="url(#filter0_f_192_1893)">
<ellipse cx="380" cy="356.252" rx="56" ry="25.5" fill="url(#paint0_radial_192_1893)"/>
</g>
<g style="mix-blend-mode:multiply">
<path d="M840.425 180.366L827.288 172.784L528.881 345.199L425.08 285.223L668.762 144.437L681.882 136.854L668.762 129.272L549.333 60.2741L640.523 7.60009L627.385 0L439.48 108.578L324.629 42.213L311.491 49.7955L513.341 166.412L405.926 228.477L121.253 64.0128L108.134 71.5953L392.789 236.059L405.926 243.642L419.046 236.059L526.461 173.995L539.598 166.412L526.461 158.83L452.618 116.16L536.213 67.8567L655.625 136.854L411.943 277.64L119.061 108.42L105.941 116.002L398.823 285.223L314.386 334L13.1199 159.953L0 167.535L301.266 341.6L214.355 391.8L227.493 399.382L411.943 292.805L689.95 453.425L703.088 445.843L542.001 352.781L840.425 180.366Z" fill="url(#paint1_radial_192_1893)"/>
<path d="M431.43 349.235L418.292 356.818L297.74 426.465L310.878 434.065L431.43 364.418L689.828 513.699L702.965 506.117L444.549 356.818L431.43 349.235Z" fill="url(#paint2_radial_192_1893)"/>
<path d="M841.899 244.484L828.761 236.902L815.624 244.484L603.496 367.051L616.616 374.633L828.761 252.067L949.313 321.714L962.433 314.131L841.899 244.484Z" fill="url(#paint3_radial_192_1893)"/>
</g>
<path style="mix-blend-mode:multiply" d="M265 298.758L249 289.752V307.763L265 316.752V298.758Z" fill="url(#paint4_linear_192_1893)"/>
<path style="mix-blend-mode:multiply" d="M280 289.752L265 298.758V316.752L280 307.763V289.752Z" fill="url(#paint5_linear_192_1893)"/>
<path d="M265 280.079L249 270.752V289.425L265 298.752V280.079Z" fill="#CDCDCD"/>
<path d="M280 270.752L265 280.079V298.752L280 289.425V270.752Z" fill="#EAEAEA"/>
<path d="M280 271.261L264.509 261.752L249 271.261L264.509 280.752L280 271.261Z" fill="#F2F2F2"/>
<path d="M442 191.132L438.22 204.968L421.93 223.265L407.931 230.752L378.78 218.717L361.719 206.245L344.588 149.518C346.898 156.882 360.337 197.692 344.676 102.726C327.633 -0.757648 375.385 99.018 375.385 99.018L378.727 105.105C376.374 110.204 375.231 115.777 375.385 121.391C375.385 146.142 392.76 176.229 414.213 188.613C425.114 194.893 434.948 195.4 442 191.132Z" fill="#7B1A11"/>
<g filter="url(#filter1_b_192_1893)">
<path d="M392 67.118C346.156 40.5823 309 62.0953 309 115.149C309 196.214 392 328.752 392 328.752C392 328.752 475 290.415 475 211.229C474.912 158.175 437.739 93.6537 392 67.118ZM392 208.191C370.523 195.775 353.11 165.551 353.11 140.684C353.11 115.817 370.435 105.771 392 118.187C413.565 130.603 430.872 160.845 430.872 185.694C430.872 210.544 413.372 220.625 392 208.191Z" fill="url(#paint6_linear_192_1893)"/>
</g>
<path d="M413.469 49.6638L413.469 49.6638C436.025 62.7667 456.55 85.3092 471.439 111.218C486.328 137.127 495.5 166.261 495.5 192.461C495.486 211.254 490.614 229.721 481.362 246.048C473.438 259.891 463.287 272.315 451.323 282.815C465.378 264.541 476.448 240.857 476.448 211.69C476.448 184.842 467.082 155.196 452.014 128.952C436.947 102.709 416.095 79.7276 392.976 66.2976L392.974 66.2966C376.635 56.8339 361.347 53.3485 348.209 55.2562C347.164 54.7417 346.026 54.447 344.879 54.6514C343.689 54.8633 342.739 55.5633 342.016 56.5775C341.379 56.763 340.747 56.9635 340.121 57.1788L350.93 47.748C365.44 35.4456 387.825 34.7654 413.469 49.6638Z" fill="#771209" stroke="#EB4334" stroke-width="3"/>
<path style="mix-blend-mode:color-dodge" d="M545.808 128.62C547.05 86.4894 513.927 51.3284 471.826 50.0853C429.725 48.8423 394.589 81.988 393.347 124.118C392.105 166.249 425.227 201.41 467.328 202.653C509.429 203.896 544.565 170.75 545.808 128.62Z" fill="url(#paint7_radial_192_1893)"/>
<path style="mix-blend-mode:multiply" d="M568 324.746L552 315.752V333.758L568 342.752V324.746Z" fill="url(#paint8_linear_192_1893)"/>
<path style="mix-blend-mode:multiply" d="M584 315.752L568 324.746V342.752L584 333.758V315.752Z" fill="url(#paint9_linear_192_1893)"/>
<path d="M568 288.969L552 279.752V315.518L568 324.752V288.969Z" fill="#CDCDCD"/>
<path d="M584 279.752L568 288.969V324.752L584 315.518V279.752Z" fill="#EAEAEA"/>
<path d="M584 280.261L568 270.752L552 280.261L568 289.752L584 280.261Z" fill="#F2F2F2"/>
<g style="mix-blend-mode:screen">
<path d="M625.789 272.726C625.757 273.265 625.601 273.789 625.333 274.258C625.065 274.727 624.693 275.127 624.246 275.429C623.404 275.92 622.72 275.429 622.72 274.499C622.752 273.964 622.907 273.444 623.172 272.979C623.436 272.513 623.803 272.115 624.246 271.813C625.105 271.322 625.789 271.725 625.789 272.726ZM635.278 267.249C635.251 267.787 635.098 268.311 634.829 268.778C634.561 269.245 634.186 269.641 633.735 269.935C632.893 270.444 632.191 269.935 632.191 269.022C632.223 268.483 632.379 267.959 632.647 267.49C632.915 267.021 633.287 266.621 633.735 266.319C634.577 265.845 635.278 266.337 635.278 267.249ZM644.259 261.984C644.226 262.523 644.07 263.047 643.803 263.516C643.535 263.985 643.163 264.385 642.715 264.687C641.873 265.178 641.172 264.775 641.172 263.774C641.204 263.235 641.36 262.711 641.627 262.242C641.895 261.773 642.267 261.373 642.715 261.071C643.575 260.65 644.259 261.071 644.259 262.054V261.984ZM617.58 277.395C617.548 277.934 617.392 278.458 617.124 278.927C616.857 279.396 616.485 279.796 616.037 280.098C615.195 280.589 614.493 280.185 614.493 279.185C614.526 278.646 614.682 278.122 614.949 277.653C615.217 277.184 615.589 276.783 616.037 276.482C616.879 276.061 617.58 276.464 617.58 277.465V277.395ZM609.372 282.151C609.337 282.687 609.18 283.208 608.912 283.674C608.644 284.139 608.274 284.537 607.828 284.837C606.969 285.328 606.285 284.837 606.285 283.924C606.317 283.385 606.473 282.861 606.741 282.392C607.008 281.923 607.381 281.522 607.828 281.221C608.67 280.8 609.372 281.221 609.372 282.221V282.151ZM601.145 286.89C601.115 287.428 600.962 287.951 600.697 288.42C600.433 288.889 600.064 289.29 599.619 289.593C598.76 290.085 598.076 289.593 598.076 288.663C598.101 288.125 598.255 287.601 598.523 287.133C598.791 286.666 599.167 286.27 599.619 285.978C600.461 285.644 601.145 285.96 601.145 286.961V286.89ZM592.937 291.629C592.905 292.168 592.749 292.693 592.481 293.162C592.213 293.63 591.841 294.031 591.393 294.332C590.551 294.824 589.85 294.332 589.85 293.42C589.882 292.881 590.038 292.356 590.306 291.888C590.573 291.419 590.946 291.018 591.393 290.717C592.235 290.295 592.937 290.699 592.937 291.7V291.629ZM584.728 296.386C584.696 296.925 584.54 297.449 584.272 297.918C584.004 298.387 583.632 298.788 583.185 299.089C582.325 299.581 581.641 299.089 581.641 298.159C581.666 297.621 581.82 297.096 582.088 296.629C582.357 296.162 582.732 295.766 583.185 295.473C584.026 295.052 584.728 295.456 584.728 296.456V296.386ZM576.502 301.125C576.472 301.663 576.318 302.186 576.054 302.655C575.789 303.123 575.42 303.525 574.976 303.828C574.116 304.32 573.432 303.828 573.432 302.915C573.465 302.376 573.621 301.852 573.888 301.383C574.156 300.915 574.528 300.514 574.976 300.212C575.818 299.791 576.502 300.195 576.502 301.195V301.125ZM568.293 305.882C568.268 306.42 568.115 306.944 567.846 307.411C567.578 307.878 567.202 308.275 566.75 308.567C565.908 309.059 565.224 308.655 565.224 307.655C565.254 307.117 565.407 306.594 565.672 306.125C565.936 305.656 566.305 305.255 566.75 304.952C567.609 304.53 568.293 304.952 568.293 305.952V305.882ZM560.085 310.621C560.052 311.16 559.896 311.684 559.629 312.153C559.361 312.622 558.989 313.023 558.541 313.324C557.682 313.815 556.997 313.324 556.997 312.394C557.023 311.855 557.176 311.331 557.444 310.864C557.713 310.397 558.089 310.001 558.541 309.708C559.383 309.287 560.085 309.691 560.085 310.691V310.621ZM551.876 315.36C551.844 315.899 551.688 316.423 551.42 316.892C551.152 317.361 550.78 317.762 550.332 318.063C549.473 318.554 548.789 318.151 548.789 317.15C548.821 316.611 548.977 316.087 549.245 315.618C549.512 315.149 549.885 314.749 550.332 314.447C551.174 314.026 551.876 314.43 551.876 315.483V315.36ZM543.65 320.117C543.624 320.655 543.471 321.179 543.203 321.646C542.934 322.113 542.558 322.51 542.106 322.802C541.264 323.294 540.58 322.802 540.58 321.889C540.61 321.352 540.764 320.829 541.028 320.36C541.293 319.891 541.662 319.49 542.106 319.186C542.913 318.765 543.65 319.186 543.65 320.187V320.117ZM535.441 324.856C535.409 325.395 535.253 325.919 534.985 326.388C534.717 326.857 534.345 327.257 533.897 327.559C533.055 328.05 532.354 327.559 532.354 326.628C532.389 326.093 532.546 325.572 532.814 325.106C533.081 324.641 533.452 324.243 533.897 323.943C534.739 323.522 535.441 323.925 535.441 324.926V324.856ZM527.232 329.595C527.2 330.134 527.044 330.658 526.776 331.127C526.509 331.596 526.136 331.996 525.689 332.298C524.829 332.789 524.145 332.298 524.145 331.385C524.177 330.846 524.333 330.322 524.601 329.853C524.869 329.384 525.241 328.983 525.689 328.682C526.531 328.261 527.232 328.665 527.232 329.665V329.595ZM519.006 334.351C518.973 334.886 518.819 335.406 518.554 335.871C518.29 336.337 517.922 336.735 517.48 337.037C516.621 337.546 515.937 337.125 515.937 336.124C515.962 335.586 516.115 335.062 516.384 334.595C516.652 334.127 517.028 333.731 517.48 333.439C518.357 333.035 519.006 333.421 519.006 334.422V334.351Z" fill="url(#paint10_linear_192_1893)"/>
</g>
<path style="mix-blend-mode:screen" d="M575 328.713C587.65 321.52 598 303.844 598 289.232C598 274.621 587.738 268.595 575 275.788C562.262 282.98 552 300.674 552 315.285C552 329.897 562.332 335.905 575 328.713Z" fill="url(#paint11_radial_192_1893)"/>
<path style="mix-blend-mode:color-dodge" d="M583.942 307.132C588.729 298.571 588.608 289.39 583.671 286.625C578.734 283.861 570.851 288.56 566.064 297.121C561.277 305.682 561.399 314.863 566.335 317.627C571.272 320.392 579.155 315.693 583.942 307.132Z" fill="url(#paint12_radial_192_1893)"/>
<path d="M575.011 299.959C574.428 300.258 573.943 300.655 573.594 301.12C573.245 301.585 573.042 302.105 573 302.64C573 303.632 573.891 304.032 575.011 303.545C575.591 303.244 576.071 302.846 576.416 302.381C576.761 301.916 576.961 301.397 577 300.864C577 299.872 576.109 299.472 575.011 299.959Z" fill="white"/>
<defs>
<filter id="filter0_f_192_1893" x="294" y="300.752" width="172" height="111" filterUnits="userSpaceOnUse" color-interpolation-filters="sRGB">
<feFlood flood-opacity="0" result="BackgroundImageFix"/>
<feBlend mode="normal" in="SourceGraphic" in2="BackgroundImageFix" result="shape"/>
<feGaussianBlur stdDeviation="15" result="effect1_foregroundBlur_192_1893"/>
</filter>
<filter id="filter1_b_192_1893" x="279" y="25.752" width="226" height="333" filterUnits="userSpaceOnUse" color-interpolation-filters="sRGB">
<feFlood flood-opacity="0" result="BackgroundImageFix"/>
<feGaussianBlur in="BackgroundImageFix" stdDeviation="15"/>
<feComposite in2="SourceAlpha" operator="in" result="effect1_backgroundBlur_192_1893"/>
<feBlend mode="normal" in="SourceGraphic" in2="effect1_backgroundBlur_192_1893" result="shape"/>
</filter>
<radialGradient id="paint0_radial_192_1893" cx="0" cy="0" r="1" gradientUnits="userSpaceOnUse" gradientTransform="translate(380 356.252) rotate(90) scale(25.5 56)">
<stop/>
<stop offset="1" stop-color="#666666" stop-opacity="0"/>
</radialGradient>
<radialGradient id="paint1_radial_192_1893" cx="0" cy="0" r="1" gradientUnits="userSpaceOnUse" gradientTransform="translate(505.971 259.509) rotate(29.9038) scale(457.67 395.584)">
<stop stop-color="#EDEEF2"/>
<stop offset="0.53" stop-color="#FAFBFC"/>
<stop offset="1" stop-color="white"/>
</radialGradient>
<radialGradient id="paint2_radial_192_1893" cx="0" cy="0" r="1" gradientUnits="userSpaceOnUse" gradientTransform="translate(491.535 251.207) rotate(29.9038) scale(615.802 532.263)">
<stop stop-color="#EDEEF2"/>
<stop offset="0.53" stop-color="#FAFBFC"/>
<stop offset="1" stop-color="white"/>
</radialGradient>
<radialGradient id="paint3_radial_192_1893" cx="0" cy="0" r="1" gradientUnits="userSpaceOnUse" gradientTransform="translate(517.995 266.424) rotate(29.9038) scale(447.39 386.698)">
<stop stop-color="#EDEEF2"/>
<stop offset="0.53" stop-color="#FAFBFC"/>
<stop offset="1" stop-color="white"/>
</radialGradient>
<linearGradient id="paint4_linear_192_1893" x1="260.876" y1="296.177" x2="253.555" y2="310.243" gradientUnits="userSpaceOnUse">
<stop stop-color="#B5C6FC"/>
<stop offset="0.03" stop-color="#B9C9FC"/>
<stop offset="0.29" stop-color="#D8E1FD"/>
<stop offset="0.54" stop-color="#EDF1FE"/>
<stop offset="0.78" stop-color="#FBFCFF"/>
<stop offset="1" stop-color="white"/>
</linearGradient>
<linearGradient id="paint5_linear_192_1893" x1="268.788" y1="296.679" x2="276.738" y2="309.756" gradientUnits="userSpaceOnUse">
<stop stop-color="#B5C6FC"/>
<stop offset="0.03" stop-color="#B9C9FC"/>
<stop offset="0.29" stop-color="#D8E1FD"/>
<stop offset="0.54" stop-color="#EDF1FE"/>
<stop offset="0.78" stop-color="#FBFCFF"/>
<stop offset="1" stop-color="white"/>
</linearGradient>
<linearGradient id="paint6_linear_192_1893" x1="392" y1="55.752" x2="392" y2="328.752" gradientUnits="userSpaceOnUse">
<stop stop-color="#EB4334"/>
<stop offset="1" stop-color="#EB4334" stop-opacity="0"/>
</linearGradient>
<radialGradient id="paint7_radial_192_1893" cx="0" cy="0" r="1" gradientUnits="userSpaceOnUse" gradientTransform="translate(469.603 126.331) scale(76.2636 76.3168)">
<stop stop-color="#33547A"/>
<stop offset="0.01" stop-color="#315176"/>
<stop offset="0.07" stop-color="#243B56"/>
<stop offset="0.13" stop-color="#19293B"/>
<stop offset="0.21" stop-color="#101A25"/>
<stop offset="0.3" stop-color="#090E14"/>
<stop offset="0.41" stop-color="#040609"/>
<stop offset="0.57" stop-color="#010102"/>
<stop offset="1"/>
</radialGradient>
<linearGradient id="paint8_linear_192_1893" x1="563.893" y1="322.164" x2="556.565" y2="336.235" gradientUnits="userSpaceOnUse">
<stop stop-color="#B5C6FC"/>
<stop offset="0.03" stop-color="#B9C9FC"/>
<stop offset="0.29" stop-color="#D8E1FD"/>
<stop offset="0.54" stop-color="#EDF1FE"/>
<stop offset="0.78" stop-color="#FBFCFF"/>
<stop offset="1" stop-color="white"/>
</linearGradient>
<linearGradient id="paint9_linear_192_1893" x1="572.036" y1="322.667" x2="579.753" y2="336.182" gradientUnits="userSpaceOnUse">
<stop stop-color="#B5C6FC"/>
<stop offset="0.03" stop-color="#B9C9FC"/>
<stop offset="0.29" stop-color="#D8E1FD"/>
<stop offset="0.54" stop-color="#EDF1FE"/>
<stop offset="0.78" stop-color="#FBFCFF"/>
<stop offset="1" stop-color="white"/>
</linearGradient>
<linearGradient id="paint10_linear_192_1893" x1="677.578" y1="234.427" x2="547.932" y2="234.427" gradientUnits="userSpaceOnUse">
<stop/>
<stop offset="0.56" stop-color="#8AFFDE"/>
<stop offset="1" stop-color="#0B080F"/>
</linearGradient>
<radialGradient id="paint11_radial_192_1893" cx="0" cy="0" r="1" gradientUnits="userSpaceOnUse" gradientTransform="translate(554.046 320.499) rotate(90) scale(26.4536 22.8434)">
<stop stop-color="#0056FF"/>
<stop offset="0.03" stop-color="#004EE8"/>
<stop offset="0.1" stop-color="#003EB8"/>
<stop offset="0.17" stop-color="#002F8C"/>
<stop offset="0.25" stop-color="#002366"/>
<stop offset="0.33" stop-color="#001847"/>
<stop offset="0.42" stop-color="#000F2D"/>
<stop offset="0.52" stop-color="#000819"/>
<stop offset="0.63" stop-color="#00040B"/>
<stop offset="0.76" stop-color="#000102"/>
<stop offset="1"/>
</radialGradient>
<radialGradient id="paint12_radial_192_1893" cx="0" cy="0" r="1" gradientUnits="userSpaceOnUse" gradientTransform="translate(583.523 249.578) rotate(89.8411) scale(14.599 12.4598)">
<stop stop-color="#0029FF"/>
<stop offset="0.03" stop-color="#0025E8"/>
<stop offset="0.1" stop-color="#001EB8"/>
<stop offset="0.17" stop-color="#00178C"/>
<stop offset="0.25" stop-color="#001066"/>
<stop offset="0.33" stop-color="#000B47"/>
<stop offset="0.42" stop-color="#00072D"/>
<stop offset="0.52" stop-color="#000419"/>
<stop offset="0.63" stop-color="#00020B"/>
<stop offset="0.76" stop-color="#000002"/>
<stop offset="1"/>
</radialGradient>
</defs>
</svg>
