<svg width="55" height="55" viewBox="0 0 55 55" fill="none" xmlns="http://www.w3.org/2000/svg">
<path opacity="0.4" d="M25.254 44.6875H17.1873C15.7665 44.6875 14.5061 44.6417 13.3832 44.4813C7.35609 43.8167 5.729 40.975 5.729 33.2292V21.7708C5.729 14.025 7.35609 11.1833 13.3832 10.5188C14.5061 10.3583 15.7665 10.3125 17.1873 10.3125H25.1165" stroke="#EB4334" stroke-width="1.5" stroke-linecap="round" stroke-linejoin="round"/>
<path d="M34.4209 10.3125H37.8126C39.2334 10.3125 40.4938 10.3583 41.6167 10.5188C47.6438 11.1833 49.2709 14.025 49.2709 21.7708V33.2292C49.2709 40.975 47.6438 43.8167 41.6167 44.4813C40.4938 44.6417 39.2334 44.6875 37.8126 44.6875H34.4209" stroke="#EB4334" stroke-width="1.5" stroke-linecap="round" stroke-linejoin="round"/>
<path d="M34.375 4.58331V50.4166" stroke="#EB4334" stroke-width="1.5" stroke-linecap="round" stroke-linejoin="round"/>
<path opacity="0.4" d="M18.3335 19.4792V35.5209" stroke="#EB4334" stroke-width="1.5" stroke-linecap="round" stroke-linejoin="round"/>
</svg>
