<svg width="398" height="405" viewBox="0 0 398 405" fill="none" xmlns="http://www.w3.org/2000/svg">
<g clip-path="url(#clip0_1_1184)">
<path d="M285.563 80.9611L283.623 0.222397L211.472 36.1578L228.772 46.6185L58.5527 332.103L93.2673 369.479L267.887 70.2725L285.563 80.9611Z" fill="white"/>
<path d="M93.284 369.712L93.1559 369.573L58.3662 332.123L58.4219 332.034L228.583 46.6658L211.185 36.1523L283.756 0.0139008V0.233509L285.705 81.2252L267.931 70.4782L93.284 369.712ZM58.7169 332.087L93.2283 369.248L267.837 70.0807L285.418 80.7109L283.489 0.444782L211.761 36.169L228.964 46.5713L228.891 46.6908L58.7169 332.087Z" fill="#8588A8"/>
<path d="M129.276 199.248L128.658 173.55L105.697 184.987L111.202 188.317L52.4297 285.274L64.8788 292.801L123.651 195.845L129.276 199.248Z" fill="white"/>
<path d="M64.9258 292.993L52.2373 285.321L52.3097 285.201L111.01 188.364L105.407 184.976L128.786 173.328L129.412 199.498L123.69 196.034L64.9258 292.993ZM52.6214 285.229L64.8312 292.612L123.604 195.653L129.131 198.989L128.524 173.764L105.98 184.99L111.391 188.261L111.319 188.381L52.6214 285.229Z" fill="#8588A8"/>
<path d="M338.457 263.41L337.608 228.036L305.997 243.781L313.575 248.362L232.666 381.841L249.802 392.204L330.714 258.729L338.457 263.41Z" fill="white"/>
<path d="M249.849 392.396L232.473 381.888L232.546 381.769L313.386 248.41L305.707 243.767L337.741 227.814V228.03L338.599 263.66L330.756 258.918L249.849 392.396ZM232.871 381.794L249.771 392.012L330.666 258.542L338.312 263.165L337.477 228.261L306.286 243.798L313.77 248.321L313.697 248.44L232.871 381.794Z" fill="#8588A8"/>
<path d="M164.834 400.269C164.834 400.269 121.466 418.482 68.5134 362.137C15.5607 305.792 -2.1431 246.18 8.11847 207.896L164.834 400.269Z" fill="url(#paint0_linear_1_1184)"/>
<path d="M164.592 400.463C164.592 400.463 191.252 361.759 146.796 298.511C102.34 235.264 47.4893 205.841 7.87354 208.09L164.592 400.463Z" fill="#C3C3C3"/>
<path d="M66.4736 280.289C65.5858 279.697 40.9797 277.42 24.6592 276.033L24.687 275.694C31.5921 276.281 66.0617 279.247 66.713 280.056L66.4486 280.273L66.5822 280.164L66.4736 280.289Z" fill="white"/>
<path d="M56.9759 239.632L54.3315 265.322L54.6721 265.357L57.3164 239.667L56.9759 239.632Z" fill="white"/>
<path d="M92.8928 254.495L87.5771 306.137L87.9177 306.172L93.2334 254.53L92.8928 254.495Z" fill="white"/>
<path d="M58.5584 332.135L58.5234 332.475L113.638 338.135L113.673 337.795L58.5584 332.135Z" fill="white"/>
<path d="M144.359 318.853L139.162 369.426L139.503 369.461L144.699 318.888L144.359 318.853Z" fill="white"/>
<path d="M8.01063 207.968L7.74512 208.184L164.481 400.544L164.746 400.328L8.01063 207.968Z" fill="white"/>
<path d="M31.3774 335.381C31.3391 335.38 31.3012 335.372 31.2662 335.356C31.2313 335.34 31.2 335.318 31.1743 335.289C31.1743 335.289 30.3393 334.377 28.9755 332.734C28.9283 332.677 28.9057 332.604 28.9128 332.53C28.9198 332.456 28.9559 332.388 29.0131 332.341C29.0703 332.294 29.144 332.271 29.2178 332.278C29.2917 332.285 29.3597 332.321 29.4069 332.379C30.754 334.013 31.575 334.905 31.5834 334.914C31.6331 334.968 31.6592 335.04 31.6561 335.113C31.6529 335.187 31.6208 335.256 31.5667 335.306C31.5154 335.354 31.4477 335.381 31.3774 335.381ZM24.0799 326.207C24.0358 326.207 23.9923 326.196 23.9531 326.176C23.9139 326.156 23.8801 326.126 23.8545 326.09C23.206 325.195 22.5548 324.275 21.9063 323.361C21.8852 323.33 21.8703 323.296 21.8626 323.26C21.8548 323.224 21.8542 323.187 21.861 323.151C21.8677 323.115 21.8816 323.08 21.9018 323.049C21.922 323.019 21.9481 322.992 21.9786 322.971C22.0395 322.93 22.1145 322.914 22.1871 322.928C22.2596 322.941 22.3238 322.983 22.3655 323.044C22.9973 323.956 23.6458 324.873 24.2942 325.765C24.3371 325.825 24.3547 325.899 24.3432 325.971C24.3317 326.043 24.2921 326.108 24.233 326.152C24.1904 326.19 24.1369 326.214 24.0799 326.221V326.207ZM17.5812 316.478C17.5337 316.477 17.4869 316.465 17.4455 316.442C17.4041 316.418 17.3694 316.385 17.3446 316.344C16.7602 315.394 16.1813 314.429 15.6246 313.473C15.5914 313.409 15.584 313.335 15.604 313.266C15.624 313.197 15.6698 313.139 15.732 313.103C15.7941 313.067 15.8677 313.057 15.9375 313.074C16.0072 313.091 16.0676 313.134 16.1061 313.195C16.6628 314.145 17.2361 315.107 17.8178 316.052C17.8371 316.084 17.85 316.118 17.8559 316.154C17.8617 316.191 17.8603 316.228 17.8518 316.263C17.8432 316.299 17.8277 316.333 17.8061 316.362C17.7845 316.392 17.7573 316.417 17.7259 316.436C17.6849 316.471 17.6346 316.493 17.5812 316.5V316.478ZM11.8646 306.284C11.813 306.284 11.7623 306.271 11.718 306.244C11.6738 306.218 11.6378 306.179 11.6141 306.134C11.1075 305.133 10.6094 304.124 10.1362 303.131C10.1105 303.066 10.1105 302.993 10.1363 302.928C10.1621 302.863 10.2118 302.809 10.2753 302.779C10.3388 302.749 10.4114 302.744 10.4786 302.765C10.5457 302.786 10.6024 302.831 10.6372 302.892C11.1103 303.879 11.6057 304.886 12.1123 305.881C12.1291 305.913 12.1392 305.949 12.1421 305.986C12.145 306.022 12.1407 306.059 12.1293 306.094C12.1179 306.129 12.0997 306.161 12.0758 306.189C12.0518 306.217 12.0226 306.24 11.9898 306.256C11.9528 306.283 11.9098 306.3 11.8646 306.306V306.284ZM7.03297 295.648C6.97723 295.648 6.92276 295.631 6.87661 295.6C6.83046 295.569 6.79476 295.525 6.77414 295.473C6.36223 294.439 5.95866 293.388 5.57737 292.351C5.5519 292.282 5.55504 292.205 5.5861 292.138C5.61716 292.071 5.67358 292.019 5.74297 291.994C5.81235 291.968 5.88901 291.972 5.95608 292.003C6.02315 292.034 6.07514 292.09 6.10061 292.159C6.47912 293.191 6.8799 294.236 7.29181 295.267C7.30536 295.301 7.31209 295.337 7.31159 295.374C7.31109 295.411 7.30338 295.447 7.28891 295.48C7.27443 295.514 7.25347 295.544 7.22722 295.57C7.20097 295.595 7.16996 295.615 7.13595 295.629C7.10501 295.65 7.06989 295.664 7.03297 295.67V295.648ZM3.25342 284.601C3.19095 284.603 3.12952 284.584 3.07903 284.548C3.02854 284.511 2.99193 284.458 2.9751 284.398C2.66895 283.322 2.3795 282.232 2.11509 281.165C2.09744 281.093 2.10892 281.018 2.14701 280.955C2.1851 280.892 2.2467 280.846 2.31827 280.829C2.38987 280.811 2.46554 280.822 2.52869 280.86C2.59183 280.898 2.63727 280.96 2.65503 281.031C2.93335 282.093 3.21167 283.175 3.51225 284.248C3.53197 284.319 3.52284 284.394 3.48686 284.458C3.45087 284.522 3.39096 284.57 3.32021 284.59C3.29955 284.604 3.27708 284.615 3.25342 284.623V284.601ZM0.73464 273.203C0.66793 273.204 0.60313 273.181 0.552045 273.138C0.500961 273.095 0.466992 273.036 0.456323 272.97C0.283766 271.858 0.127908 270.746 -0.000118355 269.653C-0.00432152 269.617 -0.00128667 269.58 0.0088169 269.545C0.0189205 269.509 0.0358956 269.476 0.0587677 269.448C0.0816398 269.419 0.109961 269.395 0.142119 269.377C0.174278 269.359 0.209642 269.348 0.246191 269.343C0.282741 269.339 0.319759 269.342 0.355134 269.352C0.39051 269.362 0.423553 269.379 0.452369 269.402C0.481185 269.425 0.505212 269.453 0.523082 269.486C0.540952 269.518 0.552314 269.553 0.556517 269.589C0.687327 270.679 0.834835 271.786 1.01296 272.884C1.01849 272.92 1.01683 272.957 1.00807 272.992C0.999304 273.028 0.983612 273.061 0.961895 273.091C0.940178 273.12 0.912862 273.145 0.881507 273.164C0.850152 273.183 0.815376 273.195 0.779172 273.201L0.73464 273.203Z" fill="#5F9899"/>
<path d="M82.0815 219.58C82.0235 219.579 81.9671 219.561 81.9201 219.527C81.0323 218.896 80.1027 218.267 79.1592 217.667C79.0968 217.627 79.0528 217.564 79.0369 217.492C79.021 217.42 79.0345 217.344 79.0743 217.282C79.1142 217.22 79.1772 217.176 79.2495 217.16C79.3218 217.144 79.3974 217.157 79.4598 217.197C80.4088 217.806 81.3468 218.437 82.243 219.074C82.2917 219.108 82.3282 219.156 82.3473 219.212C82.3663 219.269 82.3669 219.329 82.3489 219.386C82.3308 219.443 82.2951 219.492 82.247 219.527C82.1989 219.561 82.1409 219.58 82.0815 219.58ZM72.0287 213.62C71.9863 213.62 71.9444 213.61 71.9062 213.592C70.9293 213.108 69.9135 212.63 68.8921 212.171C68.8294 212.138 68.7817 212.083 68.7586 212.016C68.7356 211.949 68.739 211.876 68.7681 211.811C68.7972 211.747 68.8498 211.696 68.9152 211.668C68.9807 211.641 69.054 211.64 69.1203 211.665C70.1501 212.127 71.1687 212.605 72.1539 213.091C72.22 213.124 72.2703 213.182 72.2938 213.252C72.3172 213.322 72.312 213.398 72.2792 213.464C72.2562 213.511 72.2206 213.55 72.1763 213.578C72.132 213.605 72.0809 213.62 72.0287 213.62ZM61.2467 209.111C61.2154 209.116 61.1833 209.116 61.152 209.111C60.1223 208.746 59.0591 208.391 57.9931 208.051C57.9226 208.029 57.8638 207.98 57.8296 207.915C57.7955 207.849 57.7887 207.773 57.8108 207.703C57.833 207.632 57.8822 207.573 57.9477 207.539C58.0132 207.505 58.0896 207.498 58.1601 207.52C59.2344 207.862 60.3032 208.221 61.3385 208.585C61.3998 208.607 61.4513 208.65 61.4841 208.707C61.5169 208.763 61.5289 208.829 61.518 208.893C61.507 208.957 61.4739 209.016 61.4243 209.058C61.3747 209.1 61.3119 209.124 61.2467 209.124V209.111ZM50.0388 205.775C50.0157 205.777 49.9923 205.777 49.9692 205.775C48.9088 205.511 47.8151 205.252 46.724 205.007C46.6867 205.001 46.6509 204.988 46.619 204.967C46.5871 204.947 46.5596 204.92 46.5384 204.889C46.5171 204.858 46.5024 204.823 46.4953 204.785C46.4882 204.748 46.4887 204.71 46.4968 204.673C46.505 204.636 46.5206 204.601 46.5427 204.571C46.5648 204.54 46.593 204.514 46.6255 204.495C46.6579 204.475 46.694 204.463 46.7316 204.458C46.7691 204.453 46.8073 204.455 46.8437 204.465C47.9403 204.71 49.0369 204.971 50.1056 205.235C50.1794 205.244 50.2467 205.282 50.2926 205.34C50.3386 205.399 50.3594 205.473 50.3505 205.547C50.3417 205.62 50.3038 205.688 50.2454 205.734C50.1869 205.779 50.1126 205.8 50.0388 205.791V205.775ZM38.5833 203.406H38.5359C37.4533 203.226 36.3428 203.05 35.2379 202.886C35.2013 202.881 35.1662 202.869 35.1344 202.85C35.1027 202.831 35.075 202.806 35.0529 202.776C35.0083 202.717 34.9892 202.642 34.9999 202.568C35.0106 202.494 35.0502 202.428 35.11 202.383C35.1697 202.339 35.2448 202.32 35.3186 202.33C36.4319 202.494 37.5451 202.67 38.6278 202.853C38.7016 202.859 38.77 202.894 38.8181 202.95C38.8661 203.006 38.8897 203.08 38.8838 203.153C38.8779 203.227 38.8429 203.295 38.7866 203.343C38.7302 203.391 38.6571 203.415 38.5833 203.409V203.406ZM26.9802 201.861H26.9524C25.8391 201.749 24.7258 201.649 23.6125 201.56C23.5759 201.558 23.5403 201.548 23.5076 201.531C23.4749 201.514 23.4458 201.491 23.422 201.463C23.3982 201.436 23.3801 201.403 23.3689 201.368C23.3577 201.333 23.3534 201.297 23.3565 201.26C23.3629 201.187 23.3981 201.119 23.4544 201.072C23.5108 201.024 23.5836 201.001 23.6571 201.007C24.7703 201.096 25.8836 201.196 26.9969 201.305C27.0707 201.308 27.14 201.341 27.1896 201.396C27.2392 201.451 27.265 201.523 27.2613 201.597C27.2576 201.67 27.2247 201.74 27.1699 201.789C27.1151 201.839 27.0429 201.864 26.9691 201.861H26.9802ZM15.2908 201.099C13.9688 201.063 13.0031 201.054 12.4269 201.054H11.9482C11.8744 201.054 11.8036 201.025 11.7514 200.973C11.6992 200.921 11.6699 200.85 11.6699 200.776C11.6699 200.703 11.6992 200.632 11.7514 200.58C11.8036 200.528 11.8744 200.498 11.9482 200.498H12.4325C13.0142 200.498 13.9855 200.498 15.3103 200.543C15.3841 200.543 15.4549 200.572 15.5071 200.624C15.5593 200.677 15.5886 200.747 15.5886 200.821C15.5886 200.895 15.5593 200.965 15.5071 201.018C15.4549 201.07 15.3841 201.099 15.3103 201.099H15.2908Z" fill="#5F9899"/>
<path d="M268.346 322.757C268.304 322.756 268.264 322.747 268.226 322.73C267.269 322.263 266.731 321.976 266.726 321.974C266.691 321.958 266.66 321.935 266.634 321.907C266.608 321.879 266.589 321.846 266.576 321.81C266.564 321.774 266.559 321.735 266.562 321.697C266.566 321.659 266.576 321.623 266.594 321.589C266.612 321.555 266.637 321.526 266.667 321.502C266.697 321.478 266.731 321.461 266.768 321.451C266.805 321.441 266.844 321.439 266.881 321.445C266.919 321.451 266.955 321.464 266.987 321.484C266.987 321.484 267.522 321.762 268.468 322.229C268.525 322.257 268.571 322.303 268.598 322.36C268.625 322.416 268.632 322.481 268.618 322.542C268.604 322.604 268.569 322.658 268.52 322.697C268.47 322.736 268.409 322.758 268.346 322.757Z" fill="#5F9899"/>
<path d="M299.684 331.547H299.667C298.649 331.495 297.6 331.414 296.545 331.3C296.508 331.296 296.473 331.285 296.44 331.268C296.408 331.25 296.38 331.226 296.357 331.198C296.333 331.169 296.316 331.137 296.306 331.101C296.295 331.066 296.292 331.029 296.296 330.993C296.3 330.956 296.31 330.921 296.328 330.889C296.346 330.856 296.369 330.828 296.398 330.805C296.426 330.782 296.459 330.764 296.494 330.754C296.53 330.744 296.567 330.74 296.603 330.744C297.647 330.855 298.688 330.939 299.695 330.989C299.769 330.989 299.84 331.018 299.892 331.07C299.944 331.122 299.974 331.193 299.974 331.267C299.974 331.34 299.944 331.411 299.892 331.463C299.84 331.515 299.769 331.545 299.695 331.545L299.684 331.547ZM307.477 331.283C307.403 331.288 307.331 331.263 307.275 331.215C307.219 331.166 307.185 331.097 307.181 331.023C307.176 330.95 307.201 330.877 307.249 330.822C307.298 330.766 307.367 330.732 307.441 330.727C308.482 330.594 309.506 330.416 310.488 330.199C310.562 330.183 310.639 330.197 310.703 330.238C310.766 330.279 310.811 330.344 310.827 330.417C310.843 330.491 310.828 330.568 310.787 330.631C310.746 330.695 310.682 330.739 310.608 330.755C309.612 330.975 308.571 331.155 307.513 331.289L307.477 331.283ZM288.905 330.013C288.885 330.016 288.864 330.016 288.844 330.013C287.845 329.79 286.823 329.538 285.804 329.268C285.737 329.246 285.681 329.199 285.647 329.136C285.613 329.074 285.605 329.001 285.623 328.933C285.641 328.865 285.685 328.806 285.745 328.768C285.805 328.731 285.877 328.717 285.946 328.731C286.959 329.009 287.975 329.248 288.966 329.471C289.04 329.479 289.108 329.516 289.154 329.574C289.2 329.632 289.222 329.706 289.214 329.779C289.206 329.853 289.169 329.921 289.111 329.967C289.053 330.013 288.979 330.035 288.905 330.027V330.013ZM317.85 328.106C317.788 328.106 317.728 328.085 317.68 328.047C317.631 328.008 317.596 327.955 317.581 327.895C317.566 327.835 317.572 327.772 317.597 327.716C317.622 327.659 317.665 327.613 317.719 327.583C318.626 327.099 319.502 326.561 320.344 325.971C320.373 325.947 320.408 325.929 320.444 325.918C320.481 325.908 320.52 325.905 320.558 325.911C320.595 325.916 320.632 325.929 320.665 325.948C320.697 325.968 320.725 325.995 320.747 326.026C320.77 326.057 320.785 326.092 320.793 326.13C320.8 326.167 320.8 326.206 320.792 326.243C320.785 326.28 320.769 326.316 320.747 326.347C320.725 326.378 320.697 326.404 320.664 326.424C319.805 327.029 318.909 327.579 317.981 328.073C317.936 328.097 317.886 328.108 317.836 328.106H317.85ZM278.435 326.955C278.402 326.955 278.37 326.949 278.34 326.938C277.371 326.594 276.392 326.227 275.412 325.846C275.377 325.834 275.344 325.814 275.316 325.789C275.288 325.764 275.266 325.734 275.25 325.7C275.234 325.666 275.225 325.629 275.224 325.591C275.223 325.554 275.23 325.516 275.243 325.481C275.257 325.446 275.278 325.415 275.304 325.388C275.33 325.361 275.362 325.34 275.397 325.326C275.431 325.312 275.469 325.304 275.506 325.305C275.544 325.305 275.581 325.314 275.615 325.329C276.584 325.707 277.563 326.071 278.529 326.416C278.598 326.441 278.654 326.492 278.685 326.558C278.716 326.624 278.72 326.7 278.696 326.769C278.676 326.825 278.639 326.874 278.589 326.908C278.54 326.941 278.481 326.958 278.421 326.955H278.435Z" fill="#5F9899"/>
<path d="M326.072 321.089C326.011 321.089 325.951 321.07 325.902 321.034C325.873 321.012 325.848 320.984 325.829 320.952C325.811 320.921 325.798 320.885 325.794 320.849C325.789 320.812 325.791 320.775 325.8 320.74C325.81 320.704 325.827 320.671 325.849 320.642C326.177 320.211 326.503 319.761 326.812 319.299C326.853 319.238 326.917 319.196 326.99 319.182C327.062 319.168 327.138 319.183 327.199 319.224C327.26 319.265 327.302 319.329 327.317 319.402C327.331 319.474 327.315 319.549 327.274 319.611C326.957 320.08 326.628 320.539 326.292 320.981C326.266 321.015 326.232 321.042 326.194 321.061C326.156 321.08 326.114 321.089 326.072 321.089Z" fill="#5F9899"/>
<path d="M296.984 122.645V380.368C296.984 386.855 294.404 393.078 289.811 397.665C285.218 402.253 278.988 404.83 272.492 404.83H169.523C163.028 404.83 156.798 402.253 152.205 397.665C147.612 393.078 145.031 386.855 145.031 380.368V122.645C145.031 116.157 147.612 109.935 152.205 105.347C156.798 100.76 163.028 98.1824 169.523 98.1824H272.484C275.701 98.1813 278.887 98.8132 281.859 100.042C284.832 101.271 287.533 103.073 289.808 105.344C292.083 107.616 293.888 110.313 295.119 113.282C296.351 116.25 296.984 119.432 296.984 122.645Z" fill="white"/>
<path d="M272.484 405H169.524C162.985 404.993 156.717 402.395 152.093 397.777C147.47 393.159 144.869 386.898 144.862 380.368V122.645C144.869 116.115 147.47 109.854 152.093 105.236C156.717 100.618 162.985 98.0202 169.524 98.0128H272.484C279.023 98.0202 285.291 100.618 289.915 105.236C294.538 109.854 297.139 116.115 297.146 122.645V380.368C297.139 386.898 294.538 393.159 289.915 397.777C285.291 402.395 279.023 404.993 272.484 405ZM169.524 98.3353C163.071 98.3427 156.884 100.906 152.321 105.464C147.759 110.021 145.192 116.2 145.185 122.645V380.368C145.186 386.814 147.751 392.997 152.315 397.556C156.879 402.114 163.069 404.676 169.524 404.678H272.484C278.939 404.677 285.13 402.115 289.694 397.557C294.258 392.998 296.823 386.815 296.823 380.368V122.645C296.816 116.2 294.249 110.021 289.686 105.464C285.124 100.906 278.937 98.3427 272.484 98.3353H169.524Z" fill="#5B71A8"/>
<path d="M291.961 122.462V380.545C291.962 383.076 291.463 385.583 290.494 387.922C289.525 390.26 288.104 392.385 286.312 394.175C284.52 395.965 282.393 397.385 280.052 398.354C277.711 399.322 275.202 399.821 272.668 399.821H169.342C164.227 399.818 159.321 397.786 155.705 394.171C152.09 390.556 150.059 385.655 150.061 380.545V122.462C150.061 117.351 152.093 112.45 155.711 108.836C159.329 105.222 164.237 103.192 169.354 103.192H272.679C277.794 103.195 282.698 105.226 286.314 108.84C289.93 112.453 291.961 117.353 291.961 122.462Z" fill="#DCDCDC"/>
<path d="M242.974 122.645H340.8C343.23 122.645 345.56 123.609 347.279 125.326C348.997 127.042 349.962 129.37 349.962 131.797V185.087C349.962 187.514 348.997 189.842 347.279 191.558C345.56 193.274 343.23 194.238 340.8 194.238H270.942L256.692 208.468V194.238H242.971C240.541 194.238 238.211 193.274 236.493 191.558C234.774 189.842 233.809 187.514 233.809 185.087V131.797C233.809 130.595 234.046 129.404 234.507 128.294C234.967 127.183 235.643 126.175 236.494 125.325C237.345 124.475 238.355 123.801 239.467 123.341C240.579 122.881 241.771 122.645 242.974 122.645Z" fill="white"/>
<path d="M256.556 208.805V194.377H242.974C240.508 194.374 238.144 193.395 236.4 191.653C234.657 189.911 233.676 187.55 233.673 185.087V131.797C233.676 129.334 234.657 126.972 236.4 125.231C238.144 123.489 240.508 122.509 242.974 122.506H340.8C343.266 122.509 345.63 123.489 347.374 125.231C349.118 126.972 350.099 129.334 350.102 131.797V185.087C350.099 187.55 349.118 189.911 347.374 191.653C345.63 193.395 343.266 194.374 340.8 194.377H271.004L256.556 208.805ZM242.974 122.784C240.582 122.787 238.289 123.738 236.597 125.427C234.906 127.117 233.954 129.407 233.951 131.797V185.087C233.954 187.476 234.906 189.767 236.597 191.456C238.289 193.146 240.582 194.096 242.974 194.099H256.834V208.135L270.887 194.099H340.8C343.192 194.096 345.486 193.146 347.177 191.456C348.869 189.767 349.82 187.476 349.823 185.087V131.797C349.82 129.407 348.869 127.117 347.177 125.427C345.486 123.738 343.192 122.787 340.8 122.784H242.974Z" fill="#8588A8"/>
<path d="M313.334 163.022C316.234 162.552 318.203 159.823 317.732 156.927C317.261 154.031 314.529 152.064 311.63 152.535C308.73 153.005 306.761 155.733 307.232 158.629C307.703 161.525 310.435 163.492 313.334 163.022Z" fill="url(#paint1_linear_1_1184)"/>
<path d="M293.104 162.981C295.963 162.307 297.734 159.446 297.059 156.59C296.384 153.735 293.52 151.966 290.661 152.64C287.802 153.314 286.031 156.176 286.706 159.031C287.381 161.886 290.245 163.655 293.104 162.981Z" fill="url(#paint2_linear_1_1184)"/>
<path d="M272.514 162.979C275.373 162.305 277.143 159.444 276.469 156.589C275.794 153.733 272.929 151.965 270.07 152.639C267.212 153.313 265.441 156.174 266.116 159.029C266.791 161.885 269.655 163.653 272.514 162.979Z" fill="url(#paint3_linear_1_1184)"/>
<path d="M392.59 173.131H334.83C334.12 173.131 333.416 173.27 332.76 173.542C332.104 173.814 331.507 174.212 331.005 174.713C330.502 175.215 330.104 175.811 329.832 176.467C329.56 177.122 329.42 177.825 329.42 178.535V210C329.42 210.71 329.56 211.412 329.832 212.068C330.104 212.724 330.502 213.32 331.005 213.821C331.507 214.323 332.104 214.721 332.76 214.993C333.416 215.264 334.12 215.404 334.83 215.404H376.074L384.488 223.808V215.404H392.59C394.025 215.404 395.401 214.835 396.416 213.821C397.43 212.808 398 211.433 398 210V178.535C398 177.825 397.86 177.122 397.588 176.467C397.316 175.811 396.918 175.215 396.416 174.713C395.913 174.212 395.317 173.814 394.66 173.542C394.004 173.27 393.3 173.131 392.59 173.131Z" fill="url(#paint4_linear_1_1184)"/>
<path d="M351.552 197.021C353.285 197.021 354.691 195.617 354.691 193.885C354.691 192.153 353.285 190.749 351.552 190.749C349.818 190.749 348.412 192.153 348.412 193.885C348.412 195.617 349.818 197.021 351.552 197.021Z" fill="white"/>
<path d="M363.708 197.021C365.442 197.021 366.848 195.617 366.848 193.885C366.848 192.153 365.442 190.749 363.708 190.749C361.974 190.749 360.569 192.153 360.569 193.885C360.569 195.617 361.974 197.021 363.708 197.021Z" fill="white"/>
<path d="M375.866 197.021C377.599 197.021 379.005 195.617 379.005 193.885C379.005 192.153 377.599 190.749 375.866 190.749C374.132 190.749 372.726 192.153 372.726 193.885C372.726 195.617 374.132 197.021 375.866 197.021Z" fill="white"/>
<path d="M93.8653 71.0453C123.787 71.0453 134.892 70.1112 132.373 62.6389C129.855 55.1666 126.003 50.1851 118.427 52.6759C110.851 55.1666 113.659 35.5518 102.092 33.3724C90.5255 31.193 86.117 47.383 81.3299 44.2695C76.5428 41.1561 63.0166 39.3964 61.3328 52.106C59.649 64.8156 47.7564 51.4416 42.3515 57.0347C36.9466 62.6278 32.5352 71.0453 93.8653 71.0453Z" fill="white"/>
<path d="M93.8655 71.1787C59.599 71.1787 41.8423 68.5962 39.5935 63.2866C38.6612 61.0933 40.4285 58.8388 42.2654 56.9318C44.6227 54.4855 48.1379 55.5419 51.5389 56.5816C54.3583 57.4378 57.0218 58.2495 58.8726 57.0542C60.1056 56.2591 60.8709 54.6329 61.2077 52.0837C61.7977 47.6359 63.8378 44.5781 67.275 43.0019C72.2235 40.728 78.6415 42.3403 81.4191 44.1472C83.3674 45.4148 85.3156 43.2493 87.7759 40.5083C91.177 36.7083 95.4297 31.9825 102.12 33.2334C108.341 34.4065 110.47 40.6279 112.198 45.6289C113.743 50.1211 114.962 53.6683 118.385 52.5424C127.047 49.693 130.592 56.9152 132.507 62.5944C133.064 64.2624 132.961 65.5912 132.182 66.6725C129.404 70.5338 118.118 71.1787 93.8655 71.1787ZM46.0422 55.7226C44.684 55.7226 43.451 56.0895 42.4519 57.1125C40.6706 58.9611 38.9673 61.1239 39.8357 63.1671C42.0177 68.3071 60.1974 70.9007 93.8655 70.9007C118.018 70.9007 129.251 70.2669 131.956 66.5029C132.68 65.4994 132.772 64.2485 132.234 62.6778C129.212 53.71 124.965 50.6632 118.463 52.8009C114.781 54.013 113.454 50.1656 111.928 45.7123C110.231 40.7808 108.121 34.6456 102.059 33.5031C95.5243 32.2716 91.33 36.9418 87.9596 40.6946C85.4102 43.5356 83.3952 45.779 81.2438 44.3807C78.5191 42.6071 72.2235 41.0254 67.3697 43.2548C64.0298 44.7893 62.0371 47.7722 61.461 52.1199C61.1131 54.7552 60.306 56.4454 59.0006 57.2877C57.0524 58.5469 54.3166 57.7213 51.4332 56.8484C49.6018 56.2952 47.7288 55.7282 46.0422 55.7282V55.7226Z" fill="#8588A8"/>
<path d="M93.8656 71.4567C42.7636 71.4567 40.1836 65.3938 39.3348 63.3951C38.3412 61.0627 40.1558 58.7277 42.0595 56.7539C44.531 54.1909 48.1241 55.2806 51.6002 56.3342C54.3612 57.1681 56.969 57.9576 58.714 56.8346C59.8774 56.0868 60.6038 54.5217 60.9406 52.0532C61.5362 47.5748 63.6848 44.364 67.161 42.7656C72.257 40.425 78.6499 42.0373 81.5611 43.9304C83.2311 45.0201 84.9371 43.2715 87.5756 40.336C90.8542 36.686 95.3462 31.685 102.179 32.9749C108.552 34.1758 110.721 40.4806 112.477 45.5427C114.147 50.3741 115.307 53.2847 118.321 52.2895C127.208 49.3706 130.829 56.7234 132.777 62.5111C133.367 64.2596 133.25 65.6718 132.418 66.8282C129.551 70.7812 118.213 71.4567 93.8656 71.4567ZM46.0506 56.0034C44.7536 56.0034 43.5791 56.3509 42.644 57.321C40.924 59.1057 39.2735 61.1851 40.0807 63.0837C42.2181 68.1014 60.3144 70.645 93.8656 70.645C117.439 70.645 129.12 70.0056 131.739 66.3612C132.41 65.4299 132.491 64.2568 131.99 62.7724C129.028 53.9796 124.887 50.9857 118.555 53.065C114.617 54.3633 113.267 50.3964 111.683 45.8096C109.925 40.6918 107.929 34.8902 102.018 33.7755C95.6162 32.5718 91.4915 37.1808 88.1656 40.8836C85.6357 43.7024 83.4342 46.1348 81.1075 44.6142C78.4301 42.874 72.2514 41.3201 67.4894 43.5023C64.2331 44.9979 62.296 47.9112 61.7338 52.1588C61.372 54.8775 60.5287 56.6316 59.1538 57.5156C57.0887 58.8444 54.3111 58.0021 51.3609 57.1098C49.5518 56.5594 47.701 55.9978 46.0506 55.9978V56.0034Z" fill="white"/>
<path d="M93.8654 71.5901C42.6717 71.5901 40.0638 65.4744 39.2066 63.4507C38.1824 61.0433 40.0221 58.6637 41.9592 56.6566C44.4891 54.0352 48.1211 55.136 51.6335 56.198C54.3694 57.0319 56.9466 57.8075 58.6387 56.7178C59.7659 55.9923 60.4701 54.4605 60.7929 52.0365C61.3941 47.5053 63.5761 44.2528 67.0913 42.6405C72.2374 40.2776 78.6888 41.9038 81.625 43.8136C83.2059 44.8394 84.8702 43.127 87.4697 40.2443C90.7705 36.5665 95.2932 31.5321 102.204 32.8359C108.658 34.0535 110.832 40.3972 112.593 45.4954C114.227 50.2462 115.377 53.1123 118.268 52.1671C127.277 49.2066 130.935 56.6316 132.902 62.4749C133.506 64.2679 133.384 65.7218 132.524 66.9227C129.629 70.9007 118.26 71.5901 93.8654 71.5901ZM46.0254 55.3167C44.5809 55.3167 43.2422 55.717 42.1595 56.8512C40.2865 58.7971 38.5025 61.0822 39.4627 63.3422C39.8718 64.2985 40.7179 66.2861 47.7899 68.0347C56.5848 70.2085 72.0871 71.3121 93.8654 71.3121C118.163 71.3121 129.49 70.6505 132.273 66.7476C133.078 65.6356 133.189 64.2457 132.616 62.5555C130.687 56.8234 127.108 49.5402 118.332 52.4229C115.19 53.457 113.996 50.4992 112.307 45.5872C110.578 40.5556 108.424 34.2953 102.131 33.1111C95.3739 31.8351 90.9125 36.8028 87.6589 40.4305C84.9704 43.4217 83.2337 45.1952 81.4664 44.0444C78.583 42.1679 72.2513 40.5695 67.1998 42.8907C63.7709 44.4641 61.6474 47.6387 61.0601 52.0643C60.7261 54.5662 59.9802 56.1702 58.7807 56.943C56.98 58.1022 54.3443 57.3043 51.5444 56.4593C49.6797 55.8894 47.7677 55.3167 46.0254 55.3167ZM93.8654 70.7784C60.253 70.7784 42.115 68.207 39.9525 63.1338C39.1175 61.16 40.7874 59.0362 42.5436 57.2182C43.4259 56.3036 44.5726 55.8588 46.0504 55.8588C47.7203 55.8588 49.5962 56.4148 51.4053 56.9708C54.3165 57.852 57.069 58.686 59.0757 57.3933C60.4172 56.5315 61.241 54.8108 61.5973 52.1366C62.1539 47.8361 64.13 44.8867 67.4419 43.3716C72.2513 41.1616 78.4912 42.7295 81.1936 44.4836C83.4341 45.9402 85.5855 43.5468 88.0736 40.7752C91.4134 37.0474 95.5882 32.4078 102.054 33.6254C108.035 34.7624 110.041 40.6001 111.814 45.7595C113.373 50.288 114.711 54.1798 118.51 52.9261C124.931 50.8189 129.128 53.8406 132.123 62.7223C132.638 64.254 132.549 65.4688 131.845 66.4362C129.187 70.1279 117.497 70.7784 93.8654 70.7784ZM46.0504 56.1368C44.6588 56.1368 43.5706 56.5538 42.744 57.4128C41.0546 59.1641 39.432 61.199 40.2085 63.0253C42.321 67.9846 60.3754 70.5004 93.8654 70.5004C117.392 70.5004 129.042 69.8694 131.628 66.2722C132.268 65.3827 132.343 64.2513 131.859 62.8113C128.928 54.1103 124.837 51.1358 118.6 53.1901C114.536 54.53 113.156 50.5187 111.558 45.8735C109.805 40.7669 107.823 35.0042 101.992 33.9062C95.6801 32.7191 91.5721 37.292 88.2685 40.9698C85.694 43.8359 83.473 46.3127 81.0322 44.7254C78.3798 43.0019 72.2624 41.4619 67.5477 43.6274C64.3387 45.1035 62.4294 47.9807 61.8728 52.1783C61.5054 54.9387 60.6399 56.7234 59.2288 57.6324C57.1108 58.9973 54.2998 58.1439 51.3246 57.2404C49.535 56.6983 47.6842 56.1368 46.0504 56.1368Z" fill="#8588A8"/>
<path d="M106.899 79.5572C120.275 79.5572 125.24 79.1403 124.113 75.7989C122.986 72.4574 121.266 70.2391 117.879 71.3511C114.492 72.463 115.747 63.6953 110.579 62.7334C105.41 61.7716 103.437 68.9965 101.294 67.6038C99.1509 66.2111 93.1086 65.4271 92.3571 71.1092C91.6057 76.7913 86.287 70.8062 83.8712 73.3109C81.4554 75.8155 79.4821 79.5572 106.899 79.5572Z" fill="#E5EEEE"/>
<path d="M106.899 79.7379C84.0545 79.7379 82.9023 77.0303 82.5238 76.1241C82.0785 75.0816 82.8884 74.0392 83.74 73.1552C84.8533 72.0099 86.4508 72.4964 88.0066 72.9689C89.2396 73.3414 90.4057 73.6945 91.185 73.1913C91.7055 72.8577 92.02 72.1572 92.1758 71.0536C92.4542 69.0521 93.4032 67.6177 94.959 66.9032C97.2384 65.8552 100.094 66.5752 101.397 67.4231C102.145 67.9096 102.905 67.1284 104.085 65.8163C105.549 64.1845 107.558 61.9495 110.614 62.5249C113.462 63.0615 114.43 65.8803 115.209 68.1431C115.953 70.303 116.476 71.604 117.826 71.1592C121.797 69.8555 123.417 73.1413 124.288 75.7294C124.566 76.5105 124.5 77.1415 124.127 77.6586C122.852 79.4405 117.776 79.7379 106.899 79.7379ZM85.524 72.8466C85.2433 72.8323 84.9627 72.8771 84.7004 72.9781C84.4381 73.0792 84.2 73.2342 84.0016 73.4332C83.2335 74.231 82.4959 75.1623 82.855 76.0101C83.8096 78.2535 91.9003 79.3904 106.899 79.3904C117.436 79.3904 122.657 79.1125 123.832 77.4751C124.13 77.0609 124.166 76.5355 123.943 75.8711C122.618 71.9404 120.765 70.6033 117.937 71.5317C116.175 72.1127 115.568 70.3392 114.875 68.2876C114.088 65.9998 113.206 63.4062 110.556 62.9086C107.698 62.3721 105.85 64.4319 104.363 66.086C103.231 67.3452 102.254 68.435 101.207 67.7539C100.01 66.9755 97.2468 66.2806 95.1177 67.2591C93.6648 67.929 92.7993 69.23 92.546 71.1287C92.3846 72.3462 92.0089 73.1274 91.391 73.5249C90.4698 74.117 89.2285 73.7417 87.912 73.3414C87.0882 73.0829 86.2616 72.8466 85.524 72.8466Z" fill="#E5EEEE"/>
<path d="M235.343 221.467C235.343 221.467 264.933 323.21 269.576 387.654C269.576 387.654 225.192 303.954 225.49 265.984C225.788 228.014 235.343 221.467 235.343 221.467Z" fill="#3D3D3D"/>
<path d="M272.122 260.294C272.122 260.294 272.646 265.514 270.174 270.248C267.703 274.982 263.856 278.571 263.856 278.571L272.122 260.294Z" fill="url(#paint5_linear_1_1184)"/>
<path d="M272.629 394.325H169.095C136.484 356.438 114.055 266.637 113.509 244.837C112.897 220.375 171.8 200.74 171.8 200.74H195.538C243.269 201.886 239.028 228.937 232.907 256.452C227.934 278.835 257.555 363.474 272.629 394.325Z" fill="#1D1D1D"/>
<path d="M199.045 237.66C199.045 237.66 220.87 346.236 282.924 354.359L297.691 365.898L274.914 377.743C274.914 377.743 186.192 350.084 193.478 237.66H199.045Z" fill="url(#paint6_linear_1_1184)"/>
<path opacity="0.43" d="M244.288 306.54C244.288 306.54 226.573 347.776 164.761 388.893L157.274 377.743L244.288 306.54Z" fill="#1B1E4C"/>
<path d="M178.305 162.42C178.305 162.42 169.234 203.256 171.683 215.488C171.683 215.488 186.991 228.939 198.009 215.488C198.009 215.488 191.274 178.793 192.499 167.79C193.723 156.788 178.305 162.42 178.305 162.42Z" fill="url(#paint7_linear_1_1184)"/>
<path opacity="0.27" d="M178.783 174.74C178.783 174.74 182.568 199.609 187.617 203.779C192.666 207.949 193.389 185.115 193.389 185.115L178.783 174.74Z" fill="url(#paint8_linear_1_1184)"/>
<path d="M179.406 152.218C179.406 152.218 173.397 181.228 186.417 185.231C199.437 189.234 200.105 172.227 200.105 162.89C200.105 153.552 194.096 139.881 179.406 152.218Z" fill="url(#paint9_linear_1_1184)"/>
<path opacity="0.27" d="M181.299 160.049L185.474 154.6C185.474 154.6 194.043 157.936 199.067 155.932L198.607 154.6L182.743 152.376L181.299 160.049Z" fill="url(#paint10_linear_1_1184)"/>
<path opacity="0.27" d="M198.293 162.386L198.015 163.699L198.223 168.263H199.907C199.907 168.263 200.11 163.498 200.11 162.089L198.293 162.386Z" fill="url(#paint11_linear_1_1184)"/>
<path d="M175.354 177.12C175.354 177.12 166.929 158.158 172.165 152.935C177.4 147.711 180.542 147.703 180.542 147.703C180.542 147.703 178.449 140.384 191.015 143.533C203.581 146.683 208.827 145.624 208.827 145.624C208.827 145.624 211.967 160.265 184.742 152.946C184.731 152.929 176.451 168.886 175.354 177.12Z" fill="#1B1E4C"/>
<path d="M177.567 169.069C177.567 169.069 178.641 158.539 178.021 158.347C177.4 158.155 174.274 159.203 174.274 163.387C174.274 167.571 177.567 169.069 177.567 169.069Z" fill="url(#paint12_linear_1_1184)"/>
<path d="M252.053 272.628C252.053 272.628 254.132 266.932 258.27 262.448C259.86 260.73 260.575 262.025 259.701 265.039C258.827 268.052 257.664 272.072 260.973 271.941C264.282 271.811 269.52 253.725 271.955 256.605C274.391 259.485 265.676 275.572 262.147 281.582L252.053 272.628Z" fill="url(#paint13_linear_1_1184)"/>
<path d="M113.526 244.968C113.526 244.968 84.2048 338.052 113.526 380.935C142.846 423.817 269.551 279.469 269.551 279.469L251.738 271.102C251.738 271.102 155.401 306.662 144.928 332.815C144.928 332.815 159.59 319.219 156.448 253.327C156.462 253.336 136.562 207.315 113.526 244.968Z" fill="#3D3D3D"/>
<path d="M278.076 244.022L257.311 269.771C257.241 269.859 257.254 269.987 257.342 270.057L258.655 271.114C258.743 271.184 258.871 271.17 258.941 271.083L279.706 245.333C279.776 245.246 279.763 245.118 279.675 245.048L278.362 243.991C278.274 243.921 278.146 243.934 278.076 244.022Z" fill="white"/>
<path d="M258.777 271.263C258.701 271.264 258.626 271.238 258.566 271.191L257.249 270.129C257.214 270.102 257.184 270.067 257.162 270.028C257.141 269.989 257.128 269.945 257.124 269.901C257.114 269.811 257.14 269.721 257.196 269.651L277.962 243.898C277.99 243.863 278.024 243.834 278.063 243.812C278.103 243.791 278.146 243.777 278.191 243.772C278.235 243.768 278.28 243.772 278.323 243.785C278.366 243.798 278.406 243.819 278.44 243.848L279.757 244.921C279.827 244.977 279.872 245.059 279.882 245.149C279.891 245.238 279.865 245.328 279.81 245.399L259.044 271.152C259.011 271.189 258.97 271.218 258.923 271.237C258.877 271.256 258.827 271.265 258.777 271.263ZM278.226 244.048C278.209 244.049 278.193 244.057 278.182 244.07L257.419 269.823C257.414 269.837 257.414 269.853 257.419 269.867C257.422 269.884 257.43 269.9 257.441 269.912L258.761 270.971C258.772 270.982 258.788 270.989 258.804 270.989C258.82 270.989 258.835 270.982 258.847 270.971L279.612 245.218C279.617 245.204 279.617 245.188 279.612 245.174C279.61 245.156 279.601 245.141 279.587 245.129L278.271 244.073C278.266 244.065 278.259 244.059 278.252 244.055C278.244 244.05 278.235 244.048 278.226 244.048Z" fill="#EB4334"/>
<path opacity="0.27" d="M194.669 162.386L196.381 163.699L194.99 168.627H187.837V165.505L180.534 161.753V160.691L187.416 164.658L186.768 163.34L186.871 162.398C186.871 162.398 192.22 159.79 194.669 162.386Z" fill="url(#paint14_linear_1_1184)"/>
<path d="M194.992 163.699H187.419V166.59H194.992V163.699Z" fill="white"/>
<path d="M201.797 163.699H198.009V166.59H201.797V163.699Z" fill="white"/>
<path d="M198.009 163.699C198.009 163.699 198.646 174.54 198.009 175.096C197.372 175.652 194.669 174.874 194.324 173.984C193.979 173.094 195.652 164.532 196.381 163.699C197.11 162.865 198.009 163.699 198.009 163.699Z" fill="url(#paint15_linear_1_1184)"/>
<path d="M198.78 163.699H194.992V164.202H198.78V163.699Z" fill="#1B1E4C"/>
<path d="M187.419 163.699L178.021 158.347L178.329 159.926L187.419 164.646V163.699Z" fill="#1B1E4C"/>
<path d="M189.687 221.061L185.014 234.777L171.318 215.54C171.318 215.54 182.593 220.811 189.687 221.061Z" fill="#3D3D3D"/>
<path d="M197.959 215.435L205.02 227.616L189.615 221.417L197.959 215.435Z" fill="#3D3D3D"/>
<path d="M189.615 221.417L187.419 230.157L193.467 237.663H199.031L200.105 225.637L189.615 221.417Z" fill="url(#paint16_linear_1_1184)"/>
</g>
<defs>
<linearGradient id="paint0_linear_1_1184" x1="58.8788" y1="358.179" x2="136.207" y2="226.041" gradientUnits="userSpaceOnUse">
<stop stop-color="#AD2D24"/>
<stop offset="1" stop-color="#FBB037"/>
</linearGradient>
<linearGradient id="paint1_linear_1_1184" x1="314.262" y1="129.206" x2="313.021" y2="149.066" gradientUnits="userSpaceOnUse">
<stop stop-color="#AD2D24"/>
<stop offset="1" stop-color="#EB4334"/>
</linearGradient>
<linearGradient id="paint2_linear_1_1184" x1="293.759" y1="127.927" x2="292.521" y2="147.787" gradientUnits="userSpaceOnUse">
<stop stop-color="#AD2D24"/>
<stop offset="1" stop-color="#EB4334"/>
</linearGradient>
<linearGradient id="paint3_linear_1_1184" x1="273.249" y1="126.646" x2="272.011" y2="146.506" gradientUnits="userSpaceOnUse">
<stop stop-color="#AD2D24"/>
<stop offset="1" stop-color="#EB4334"/>
</linearGradient>
<linearGradient id="paint4_linear_1_1184" x1="524.153" y1="32.4745" x2="335.152" y2="223.521" gradientUnits="userSpaceOnUse">
<stop stop-color="#AD2D24"/>
<stop offset="1" stop-color="#EB4334"/>
</linearGradient>
<linearGradient id="paint5_linear_1_1184" x1="285.599" y1="252.012" x2="265.706" y2="271.748" gradientUnits="userSpaceOnUse">
<stop stop-color="#FFF4DE"/>
<stop offset="1" stop-color="#D26766"/>
</linearGradient>
<linearGradient id="paint6_linear_1_1184" x1="45.8835" y1="275.572" x2="258.699" y2="311.443" gradientUnits="userSpaceOnUse">
<stop stop-color="#AD2D24"/>
<stop offset="1" stop-color="#EB4334"/>
</linearGradient>
<linearGradient id="paint7_linear_1_1184" x1="137.609" y1="155.515" x2="195.673" y2="200.065" gradientUnits="userSpaceOnUse">
<stop stop-color="#FFF4DE"/>
<stop offset="1" stop-color="#D26766"/>
</linearGradient>
<linearGradient id="paint8_linear_1_1184" x1="177.773" y1="179.091" x2="199.126" y2="204.996" gradientUnits="userSpaceOnUse">
<stop stop-color="#412612"/>
<stop offset="1" stop-color="#D26766"/>
</linearGradient>
<linearGradient id="paint9_linear_1_1184" x1="209.601" y1="158.764" x2="150.416" y2="182.138" gradientUnits="userSpaceOnUse">
<stop stop-color="#FFF4DE"/>
<stop offset="1" stop-color="#D26766"/>
</linearGradient>
<linearGradient id="paint10_linear_1_1184" x1="181.299" y1="156.212" x2="199.056" y2="156.212" gradientUnits="userSpaceOnUse">
<stop stop-color="#412612"/>
<stop offset="1" stop-color="#D26766"/>
</linearGradient>
<linearGradient id="paint11_linear_1_1184" x1="198.009" y1="165.175" x2="200.105" y2="165.175" gradientUnits="userSpaceOnUse">
<stop stop-color="#412612"/>
<stop offset="1" stop-color="#D26766"/>
</linearGradient>
<linearGradient id="paint12_linear_1_1184" x1="168.062" y1="155.84" x2="186.873" y2="171.232" gradientUnits="userSpaceOnUse">
<stop stop-color="#FFF4DE"/>
<stop offset="1" stop-color="#D26766"/>
</linearGradient>
<linearGradient id="paint13_linear_1_1184" x1="267.163" y1="246.127" x2="257.588" y2="284.467" gradientUnits="userSpaceOnUse">
<stop stop-color="#FFF4DE"/>
<stop offset="1" stop-color="#D26766"/>
</linearGradient>
<linearGradient id="paint14_linear_1_1184" x1="180.536" y1="164.652" x2="196.381" y2="164.652" gradientUnits="userSpaceOnUse">
<stop stop-color="#412612"/>
<stop offset="1" stop-color="#D26766"/>
</linearGradient>
<linearGradient id="paint15_linear_1_1184" x1="209.345" y1="163.768" x2="193.869" y2="170.901" gradientUnits="userSpaceOnUse">
<stop stop-color="#FFF4DE"/>
<stop offset="1" stop-color="#D26766"/>
</linearGradient>
<linearGradient id="paint16_linear_1_1184" x1="209.379" y1="247.601" x2="204.023" y2="240.828" gradientUnits="userSpaceOnUse">
<stop stop-color="#AD2D24"/>
<stop offset="1" stop-color="#972016"/>
</linearGradient>
<clipPath id="clip0_1_1184">
<rect width="398" height="405" fill="white"/>
</clipPath>
</defs>
</svg>
