<svg width="55" height="55" viewBox="0 0 55 55" fill="none" xmlns="http://www.w3.org/2000/svg">
<path d="M52.7085 41.0437C52.7544 42.7624 52.296 44.3895 51.471 45.7874C51.0127 46.6124 50.3939 47.3687 49.7064 47.9875C48.1252 49.4542 46.0397 50.3479 43.7252 50.4167C40.3793 50.4854 37.4231 48.7667 35.796 46.1313C34.9252 44.7792 34.3981 43.1521 34.3752 41.4334C34.3064 38.5459 35.5898 35.9333 37.6523 34.2146C39.2106 32.9312 41.1814 32.1292 43.3356 32.0833C48.4002 31.9687 52.5939 35.9791 52.7085 41.0437Z" stroke="#EB4334" stroke-width="1.5" stroke-miterlimit="10" stroke-linecap="round" stroke-linejoin="round"/>
<path d="M39.9668 41.3188L42.2814 43.5187L47.071 38.8895" stroke="#EB4334" stroke-width="1.5" stroke-linecap="round" stroke-linejoin="round"/>
<g opacity="0.4">
<path d="M7.26465 17.05L27.5 28.7604L47.5979 17.1187" stroke="#EB4334" stroke-width="1.5" stroke-linecap="round" stroke-linejoin="round"/>
<path d="M27.5 49.5229V28.7374" stroke="#EB4334" stroke-width="1.5" stroke-linecap="round" stroke-linejoin="round"/>
<path d="M49.5233 21.0146V33.9855C49.5233 34.1001 49.5233 34.1916 49.5004 34.3062C47.8963 32.9083 45.8338 32.0834 43.5421 32.0834C41.3879 32.0834 39.3942 32.8396 37.8129 34.1C35.7046 35.7729 34.3754 38.3625 34.3754 41.25C34.3754 42.9688 34.8566 44.5958 35.7046 45.9708C35.9108 46.3375 36.1629 46.6813 36.4379 47.0021L32.2442 49.3167C29.6317 50.7834 25.3692 50.7834 22.7567 49.3167L10.5192 42.5333C7.74625 40.9979 5.47754 37.148 5.47754 33.9855V21.0146C5.47754 17.8521 7.74625 14.0021 10.5192 12.4667L22.7567 5.68331C25.3692 4.21665 29.6317 4.21665 32.2442 5.68331L44.4817 12.4667C47.2546 14.0021 49.5233 17.8521 49.5233 21.0146Z" stroke="#EB4334" stroke-width="1.5" stroke-linecap="round" stroke-linejoin="round"/>
</g>
</svg>
