<svg width="55" height="55" viewBox="0 0 55 55" fill="none" xmlns="http://www.w3.org/2000/svg">
<path d="M9.7627 25.2542V36.6437C9.7627 40.8146 9.76269 40.8146 13.7044 43.4729L24.5439 49.7292C26.171 50.6687 28.8294 50.6687 30.4564 49.7292L41.296 43.4729C45.2377 40.8146 45.2377 40.8146 45.2377 36.6437V25.2542C45.2377 21.0833 45.2377 21.0833 41.296 18.425L30.4564 12.1687C28.8294 11.2292 26.171 11.2292 24.5439 12.1687L13.7044 18.425C9.76269 21.0833 9.7627 21.0833 9.7627 25.2542Z" stroke="#EB4334" stroke-width="1.5" stroke-linecap="round" stroke-linejoin="round"/>
<path opacity="0.4" d="M40.1043 17.4854V11.4583C40.1043 6.87498 37.8127 4.58331 33.2293 4.58331H21.771C17.1877 4.58331 14.896 6.87498 14.896 11.4583V17.325" stroke="#EB4334" stroke-width="1.5" stroke-linecap="round" stroke-linejoin="round"/>
<path opacity="0.4" d="M28.9438 25.1854L30.2501 27.225C30.4563 27.5458 30.9147 27.8666 31.2584 27.9583L33.5959 28.5541C35.0396 28.9208 35.4292 30.1583 34.4897 31.3041L32.9542 33.1604C32.7251 33.4583 32.5417 33.9854 32.5646 34.3521L32.7022 36.7583C32.7938 38.2479 31.7396 39.0041 30.3646 38.4541L28.1188 37.5604C27.7751 37.4229 27.2022 37.4229 26.8584 37.5604L24.6126 38.4541C23.2376 39.0041 22.1834 38.225 22.2751 36.7583L22.4126 34.3521C22.4355 33.9854 22.2521 33.4354 22.023 33.1604L20.4876 31.3041C19.548 30.1583 19.9376 28.9208 21.3813 28.5541L23.7188 27.9583C24.0855 27.8666 24.5438 27.5229 24.7271 27.225L26.0334 25.1854C26.8584 23.9479 28.1417 23.9479 28.9438 25.1854Z" stroke="#EB4334" stroke-width="1.5" stroke-linecap="round" stroke-linejoin="round"/>
</svg>
