<svg xmlns="http://www.w3.org/2000/svg" width="153" height="50" viewBox="0 0 153 50" fill="none"><path d="M141.606 47.8835H135.478C135.478 35.7601 128.005 25.6863 118.281 23.9135V47.8835H112.153V16.3036H115.217C129.768 16.3036 141.606 30.4706 141.606 47.8835ZM146.871 4V23.8125C145.547 21.4579 144.036 19.2625 142.358 17.2571C135.498 9.04784 126.372 4.52241 116.668 4.52241H112V11.8556H116.669C133.323 11.8556 146.872 28.0698 146.872 48H153V4H146.871Z" fill="url(#paint0_linear_187_7676)"></path><path d="M3.906 13.494C3.882 14.79 3.894 15.81 3.942 16.554C4.002 17.286 4.434 17.706 5.238 17.814C5.91 17.91 7.254 17.952 9.27 17.94C11.298 17.916 12.696 17.91 13.464 17.922C14.016 17.946 14.508 17.82 14.94 17.544C15.048 17.412 15.108 17.19 15.12 16.878C15.132 16.566 15.132 16.32 15.12 16.14C15.12 15.84 15.096 15.588 15.048 15.384C13.644 14.748 12.192 14.118 10.692 13.494C10.488 13.434 10.23 13.32 9.918 13.152C9.606 12.972 9.336 12.648 9.108 12.18C8.868 11.424 8.862 10.782 9.09 10.254C9.33 9.726 9.684 9.336 10.152 9.084L16.236 5.934L17.658 8.67L13.14 10.992C13.068 11.028 13.002 11.064 12.942 11.1C13.002 11.136 13.08 11.172 13.176 11.208C14.388 11.712 15.528 12.216 16.596 12.72C17.328 13.068 17.772 13.53 17.928 14.106C18.084 14.682 18.168 15.294 18.18 15.942C18.24 16.494 18.204 17.136 18.072 17.868C17.952 18.588 17.592 19.242 16.992 19.83C16.368 20.346 15.72 20.676 15.048 20.82C14.376 20.952 13.818 21.006 13.374 20.982C12.534 20.97 11.064 20.976 8.964 21C6.876 21.024 5.418 20.964 4.59 20.82C3.114 20.556 2.118 19.962 1.602 19.038C1.086 18.102 0.822 17.112 0.81 16.068C0.798 15.024 0.804 14.19 0.828 13.566L3.906 13.494ZM15.138 16.968L18.198 16.788C18.234 17.292 18.372 17.61 18.612 17.742C18.864 17.862 19.224 17.922 19.692 17.922H19.926V21H19.692C19.116 21 18.486 20.904 17.802 20.712C17.118 20.508 16.524 20.118 16.02 19.542C15.516 18.954 15.222 18.096 15.138 16.968ZM9.702 8.112L8.802 6.42L13.878 3.738L14.778 5.448L9.702 8.112ZM19.5427 20.982V17.904H22.3327V20.982H19.5427ZM21.9684 20.982V17.904H24.7584V20.982H21.9684ZM24.3942 20.982V17.904H27.1842V20.982H24.3942ZM26.82 20.982V17.904H29.61V20.982H26.82ZM29.2458 20.982V17.904H32.0358V20.982H29.2458ZM31.6716 20.982V17.904H34.4616V20.982H31.6716ZM34.0973 20.982V17.904H36.8873V20.982H34.0973ZM36.5231 20.982V17.904H39.3131V20.982H36.5231ZM38.9489 20.982V17.904H41.7389V20.982H38.9489ZM41.3747 20.982V17.904H44.1647V20.982H41.3747ZM43.8005 20.982V17.904H46.5905V20.982H43.8005ZM46.2262 20.982V17.904H49.0163V20.982H46.2262ZM48.652 20.982V17.904H51.442V20.982H48.652ZM51.0778 20.982V17.904H53.8678V20.982H51.0778ZM53.5036 20.982V17.904H56.2936V20.982H53.5036ZM55.9294 20.982V17.904H58.7194V20.982H55.9294ZM58.3552 20.982V17.904H61.1452V20.982H58.3552ZM60.7809 21V17.922H62.6169C63.3369 17.922 63.7449 17.796 63.8409 17.544C63.8889 17.424 63.9129 17.316 63.9129 17.22V13.764H66.9909V17.22C66.9909 18.048 66.7929 18.744 66.3969 19.308C66.0009 19.872 65.4729 20.298 64.8129 20.586C64.1529 20.862 63.4209 21 62.6169 21H60.7809ZM64.0749 18.102L66.8469 16.824C67.0269 17.208 67.2789 17.49 67.6029 17.67C67.9269 17.838 68.3049 17.922 68.7369 17.922H69.2769V21H68.7369C67.7409 21 66.8289 20.766 66.0009 20.298C65.1849 19.818 64.5429 19.086 64.0749 18.102ZM66.3789 11.64H63.4089V8.94H66.3789V11.64ZM68.902 21V17.922H71.008C71.38 17.922 71.656 17.892 71.836 17.832C72.028 17.76 72.154 17.676 72.214 17.58C72.274 17.484 72.304 17.358 72.304 17.202V13.782H75.382V17.202C75.382 18.042 75.184 18.744 74.788 19.308C74.404 19.872 73.876 20.298 73.204 20.586C72.544 20.862 71.812 21 71.008 21H68.902ZM68.884 24.96V22.422H74.302V24.96H68.884ZM78.9178 13.782L81.9778 13.8C81.9778 17.028 81.9778 19.404 81.9778 20.928C81.9778 22.188 81.6958 23.16 81.1318 23.844C80.5678 24.528 79.8358 25.014 78.9358 25.302C78.0478 25.602 77.0818 25.77 76.0378 25.806V22.728C76.2058 22.704 76.3618 22.686 76.5058 22.674C77.1898 22.602 77.6998 22.452 78.0358 22.224C78.3838 22.008 78.6118 21.75 78.7198 21.45C78.8398 21.15 78.8998 20.85 78.8998 20.55C78.8998 19.05 78.9058 16.794 78.9178 13.782ZM84.1303 8.076H87.2083V17.22C87.2083 17.28 87.2203 17.358 87.2443 17.454C87.2803 17.538 87.3583 17.604 87.4783 17.652C87.8143 17.832 88.2463 17.922 88.7743 17.922H89.0983V21H88.7743C87.7543 21 86.8663 20.82 86.1103 20.46C85.3543 20.1 84.7903 19.518 84.4183 18.714C84.2983 18.414 84.2203 18.15 84.1843 17.922C84.1483 17.694 84.1303 17.52 84.1303 17.4V8.076ZM88.7302 21V17.922H90.8362C91.2082 17.922 91.4842 17.892 91.6642 17.832C91.8562 17.76 91.9822 17.676 92.0422 17.58C92.1022 17.484 92.1322 17.358 92.1322 17.202V13.782H95.2102V17.202C95.2102 18.042 95.0122 18.744 94.6162 19.308C94.2322 19.872 93.7042 20.298 93.0322 20.586C92.3722 20.862 91.6402 21 90.8362 21H88.7302ZM94.4722 11.64H91.5022V8.94H94.4722V11.64Z" fill="#33B8FA"></path><path d="M2.232 37.224C2.232 37.808 2.228 38.32 2.22 38.76C2.22 39.2 2.288 39.552 2.424 39.816C2.56 40.08 2.844 40.244 3.276 40.308C3.724 40.372 4.628 40.4 5.988 40.392C7.348 40.376 8.292 40.372 8.82 40.38C8.996 40.388 9.188 40.372 9.396 40.332C9.612 40.284 9.8 40.196 9.96 40.068C10.064 39.956 10.124 39.784 10.14 39.552C10.156 39.32 10.156 39.124 10.14 38.964C10.14 38.86 10.136 38.74 10.128 38.604C10.128 38.468 10.104 38.372 10.056 38.316C9.08 37.868 8.084 37.432 7.068 37.008C6.932 36.968 6.772 36.9 6.588 36.804C6.404 36.7 6.248 36.52 6.12 36.264C5.968 35.744 5.98 35.34 6.156 35.052C6.332 34.756 6.52 34.56 6.72 34.464L10.776 32.364L11.508 33.792L8.064 35.568C8.024 35.592 7.988 35.616 7.956 35.64C8.004 35.656 8.06 35.68 8.124 35.712C9.044 36.096 9.94 36.488 10.812 36.888C11.284 37.128 11.56 37.44 11.64 37.824C11.72 38.2 11.756 38.544 11.748 38.856C11.788 39.216 11.768 39.62 11.688 40.068C11.608 40.516 11.388 40.92 11.028 41.28C10.66 41.584 10.268 41.784 9.852 41.88C9.444 41.968 9.08 42.004 8.76 41.988C8.2 41.98 7.224 41.984 5.832 42C4.448 42.016 3.484 41.98 2.94 41.892C2.028 41.724 1.412 41.352 1.092 40.776C0.772 40.2 0.608 39.58 0.6 38.916C0.592 38.252 0.596 37.7 0.612 37.26L2.232 37.224ZM10.152 39.516L11.76 39.42C11.784 39.828 11.9 40.092 12.108 40.212C12.316 40.324 12.604 40.38 12.972 40.38H13.116V41.988H12.972C12.596 41.988 12.196 41.928 11.772 41.808C11.356 41.688 10.996 41.452 10.692 41.1C10.388 40.74 10.208 40.212 10.152 39.516ZM6.516 33.84L6.024 32.94L9.42 31.14L9.912 32.064L6.516 33.84ZM12.8761 42V40.392H14.1001C14.6761 40.392 15.0161 40.264 15.1201 40.008C15.1601 39.904 15.1801 39.8 15.1801 39.696V37.392H16.8001V39.696C16.8001 40.208 16.6761 40.636 16.4281 40.98C16.1881 41.324 15.8641 41.58 15.4561 41.748C15.0481 41.916 14.5961 42 14.1001 42H12.8761ZM15.2641 40.2L16.7161 39.516C17.0121 40.1 17.5001 40.392 18.1801 40.392H18.4921V42H18.1801C17.5561 42 16.9881 41.852 16.4761 41.556C15.9641 41.26 15.5601 40.808 15.2641 40.2ZM16.4521 35.916H14.7721V34.428H16.4521V35.916ZM18.2433 42V40.392H19.4673C20.0433 40.392 20.3833 40.264 20.4873 40.008C20.5273 39.904 20.5473 39.8 20.5473 39.696V37.392H22.1673V39.696C22.1673 40.208 22.0433 40.636 21.7953 40.98C21.5553 41.324 21.2313 41.58 20.8233 41.748C20.4153 41.916 19.9633 42 19.4673 42H18.2433ZM20.6313 40.2L22.0833 39.516C22.3793 40.1 22.8673 40.392 23.5473 40.392H23.8593V42H23.5473C22.9233 42 22.3553 41.852 21.8433 41.556C21.3313 41.26 20.9273 40.808 20.6313 40.2ZM18.6513 44.544V43.176H22.1193V44.544H18.6513ZM23.6105 42V40.392H24.8345C25.4105 40.392 25.7505 40.264 25.8545 40.008C25.8945 39.904 25.9145 39.8 25.9145 39.696V37.392H27.5345V39.696C27.5345 40.208 27.4105 40.636 27.1625 40.98C26.9225 41.324 26.5985 41.58 26.1905 41.748C25.7825 41.916 25.3305 42 24.8345 42H23.6105ZM25.9985 40.2L27.4505 39.516C27.7465 40.1 28.2345 40.392 28.9145 40.392H29.2265V42H28.9145C28.2905 42 27.7225 41.852 27.2105 41.556C26.6985 41.26 26.2945 40.808 25.9985 40.2ZM24.1265 35.916V34.548H27.5945V35.916H24.1265ZM28.9777 40.38C30.3137 40.38 31.3657 40.38 32.1337 40.38C32.3097 40.388 32.5017 40.372 32.7097 40.332C32.9257 40.284 33.1097 40.196 33.2617 40.068C33.3657 39.956 33.4257 39.784 33.4417 39.552C33.4577 39.32 33.4577 39.124 33.4417 38.964C33.4417 38.86 33.4417 38.74 33.4417 38.604C33.4417 38.468 33.4177 38.372 33.3697 38.316C32.3937 37.868 31.3977 37.432 30.3817 37.008C30.2377 36.968 30.0737 36.9 29.8897 36.804C29.7137 36.7 29.5577 36.52 29.4217 36.264C29.2777 35.744 29.2937 35.34 29.4697 35.052C29.6457 34.756 29.8337 34.56 30.0337 34.464L34.0777 32.364L34.8337 33.792L31.3777 35.568C31.3377 35.592 31.2977 35.616 31.2577 35.64C31.3137 35.656 31.3697 35.68 31.4257 35.712C32.3537 36.096 33.2537 36.488 34.1257 36.888C34.5897 37.128 34.8617 37.44 34.9417 37.824C35.0217 38.2 35.0577 38.544 35.0497 38.856C35.0897 39.216 35.0697 39.62 34.9897 40.068C34.9177 40.516 34.6977 40.92 34.3297 41.28C33.9617 41.584 33.5737 41.784 33.1657 41.88C32.7577 41.968 32.3937 42.004 32.0737 41.988C31.3377 41.988 30.3137 41.988 29.0017 41.988L28.9777 40.38ZM37.1122 37.392L38.7202 37.404C38.7202 39.612 38.7202 41.224 38.7202 42.24C38.7202 43.008 38.5402 43.604 38.1802 44.028C37.8282 44.46 37.3642 44.768 36.7882 44.952C36.2202 45.136 35.6082 45.24 34.9522 45.264V43.656C35.0722 43.64 35.1962 43.628 35.3242 43.62C35.9722 43.556 36.4322 43.392 36.7042 43.128C36.9762 42.872 37.1122 42.532 37.1122 42.108C37.1122 41.108 37.1122 39.536 37.1122 37.392ZM40.3157 33.612H41.9237V39.756C41.9157 39.852 41.9557 39.94 42.0437 40.02C42.1157 40.108 42.2357 40.192 42.4037 40.272C42.5797 40.352 42.8397 40.392 43.1837 40.392H43.3157V42H43.1837C42.5277 42 41.9677 41.888 41.5037 41.664C41.0397 41.44 40.6997 41.088 40.4837 40.608C40.4117 40.424 40.3637 40.264 40.3397 40.128C40.3237 39.992 40.3157 39.892 40.3157 39.828V33.612ZM43.0753 42L43.1233 40.392C43.2433 40.392 43.3753 40.392 43.5193 40.392C43.7913 40.392 43.9873 40.348 44.1073 40.26C44.2273 40.164 44.3073 39.976 44.3473 39.696C44.3713 39.472 44.4353 39.116 44.5393 38.628C44.6513 38.132 44.8953 37.66 45.2713 37.212C45.6473 36.764 46.2393 36.492 47.0473 36.396C47.9673 36.38 48.6873 36.644 49.2073 37.188C49.7353 37.732 49.9993 38.46 49.9993 39.372C49.9513 40.404 49.5873 41.128 48.9073 41.544C48.2353 41.952 47.4673 42.088 46.6033 41.952C45.7473 41.808 45.0233 41.436 44.4313 40.836L45.8233 39.744C46.0473 39.992 46.3633 40.16 46.7713 40.248C47.1793 40.328 47.5513 40.3 47.8873 40.164C48.2313 40.028 48.4153 39.752 48.4393 39.336C48.4393 38.88 48.3273 38.532 48.1033 38.292C47.8873 38.052 47.6113 37.94 47.2753 37.956C46.7473 37.988 46.4153 38.196 46.2793 38.58C46.1513 38.956 46.0513 39.412 45.9793 39.948C45.8513 40.676 45.5513 41.2 45.0793 41.52C44.6153 41.84 44.0993 42 43.5313 42C43.3953 42 43.2433 42 43.0753 42ZM46.0993 39.24C46.0513 39.616 46.0993 39.868 46.2433 39.996C46.3953 40.116 46.5553 40.204 46.7233 40.26L45.7753 39.996L46.0993 39.24ZM60.8072 33.492L62.4272 33.516C62.4272 38.324 62.4272 41.236 62.4272 42.252C62.4272 42.844 62.3152 43.328 62.0912 43.704C61.8752 44.08 61.5952 44.376 61.2512 44.592C60.9152 44.808 60.5552 44.964 60.1712 45.06C59.7952 45.156 59.4392 45.216 59.1032 45.24C58.7672 45.272 58.4952 45.288 58.2872 45.288H58.0952C57.7672 45.288 57.3712 45.26 56.9072 45.204C56.4512 45.148 55.9992 45.02 55.5512 44.82C55.1032 44.628 54.7232 44.328 54.4112 43.92C54.1072 43.512 53.9552 42.956 53.9552 42.252C53.9552 41.236 53.9552 40.204 53.9552 39.156L55.5752 39.144C55.5752 40.216 55.5752 41.252 55.5752 42.252C55.5752 42.516 55.6312 42.752 55.7432 42.96C55.8632 43.168 56.1072 43.336 56.4752 43.464C56.8432 43.592 57.3912 43.664 58.1192 43.68H58.2632C58.9912 43.664 59.5392 43.592 59.9072 43.464C60.2752 43.336 60.5152 43.168 60.6272 42.96C60.7472 42.752 60.8072 42.516 60.8072 42.252C60.8072 41.244 60.8072 38.324 60.8072 33.492ZM63.6477 33.612H65.2557V39.756C65.2477 39.852 65.2877 39.94 65.3757 40.02C65.4477 40.108 65.5677 40.192 65.7357 40.272C65.9117 40.352 66.1717 40.392 66.5157 40.392H66.6477V42H66.5157C65.8597 42 65.2997 41.888 64.8357 41.664C64.3717 41.44 64.0317 41.088 63.8157 40.608C63.7437 40.424 63.6957 40.264 63.6717 40.128C63.6557 39.992 63.6477 39.892 63.6477 39.828V33.612ZM66.4073 42V40.392H67.6313C68.2073 40.392 68.5473 40.264 68.6513 40.008C68.6913 39.904 68.7113 39.8 68.7113 39.696V37.392H70.3313V39.696C70.3313 40.208 70.2073 40.636 69.9593 40.98C69.7193 41.324 69.3953 41.58 68.9873 41.748C68.5793 41.916 68.1273 42 67.6313 42H66.4073ZM68.7953 40.2L70.2473 39.516C70.5433 40.1 71.0313 40.392 71.7113 40.392H72.0233V42H71.7113C71.0873 42 70.5193 41.852 70.0073 41.556C69.4953 41.26 69.0913 40.808 68.7953 40.2ZM66.9233 35.916V34.548H70.3913V35.916H66.9233ZM71.7745 42V40.392H72.9985C73.5745 40.392 73.9145 40.264 74.0185 40.008C74.0585 39.904 74.0785 39.8 74.0785 39.696V37.392H75.6985V39.696C75.6985 40.208 75.5745 40.636 75.3265 40.98C75.0865 41.324 74.7625 41.58 74.3545 41.748C73.9465 41.916 73.4945 42 72.9985 42H71.7745ZM74.1625 40.2L75.6145 39.516C75.9105 40.1 76.3985 40.392 77.0785 40.392H77.3905V42H77.0785C76.4545 42 75.8865 41.852 75.3745 41.556C74.8625 41.26 74.4585 40.808 74.1625 40.2ZM72.1825 44.544V43.176H75.6505V44.544H72.1825ZM77.1417 40.38H81.4977C81.8257 40.38 82.1017 40.3 82.3257 40.14C82.5497 39.972 82.7417 39.768 82.9017 39.528C83.0617 39.28 83.2017 39.02 83.3217 38.748L84.7857 39.444C84.5697 39.908 84.3137 40.336 84.0177 40.728C83.7217 41.112 83.3697 41.42 82.9617 41.652C82.5537 41.884 82.0657 42 81.4977 42H77.1417V40.38ZM84.7617 40.476C84.2097 40.18 83.7057 39.868 83.2497 39.54C82.7617 39.148 82.3257 38.76 81.9417 38.376C81.5657 37.984 81.2537 37.748 81.0057 37.668C80.9497 37.66 80.8537 37.656 80.7177 37.656C80.4297 37.656 80.0897 37.784 79.6977 38.04C79.3137 38.296 78.9857 38.596 78.7137 38.94L77.4537 37.944C77.6537 37.68 77.9217 37.404 78.2577 37.116C78.6017 36.82 78.9857 36.568 79.4097 36.36C79.8337 36.144 80.2697 36.036 80.7177 36.036C80.9337 36.036 81.1337 36.056 81.3177 36.096C81.8697 36.232 82.3657 36.52 82.8057 36.96C83.2457 37.4 83.7177 37.828 84.2217 38.244C84.6377 38.54 85.0457 38.792 85.4457 39L84.7617 40.476ZM83.0937 40.644L84.5577 39.96C84.6137 40.096 84.7217 40.2 84.8817 40.272C85.0497 40.344 85.3057 40.38 85.6497 40.38H86.3577V42H85.6497C85.3857 42 85.0897 41.972 84.7617 41.916C84.4417 41.852 84.1297 41.724 83.8257 41.532C83.5297 41.332 83.2857 41.036 83.0937 40.644ZM81.9777 44.664H80.2977V43.176H81.9777V44.664ZM86.13 42V40.38H87.45C87.738 40.38 87.962 40.348 88.122 40.284C88.29 40.22 88.402 40.132 88.458 40.02C88.506 39.932 88.53 39.824 88.53 39.696V37.404H90.138V39.696C90.138 40.216 90.018 40.648 89.778 40.992C89.538 41.328 89.214 41.58 88.806 41.748C88.398 41.916 87.946 42 87.45 42H86.13ZM86.094 44.544V43.176H89.562V44.544H86.094ZM92.0346 36.468L93.3306 35.52C93.5866 35.832 93.9266 36.228 94.3506 36.708C94.7746 37.18 95.1466 37.664 95.4666 38.16C95.7946 38.648 95.9466 39.076 95.9226 39.444C95.8106 40.164 95.4786 40.756 94.9266 41.22C94.3826 41.676 93.7586 41.924 93.0546 41.964C92.3586 42.004 91.7506 42.012 91.2306 41.988L91.2786 40.38C91.6626 40.38 92.0746 40.384 92.5146 40.392C92.9546 40.392 93.3426 40.328 93.6786 40.2C93.9986 40.032 94.2066 39.752 94.3026 39.36C94.1106 38.984 93.7426 38.484 93.1986 37.86C92.6626 37.236 92.2746 36.772 92.0346 36.468Z" fill="#8F8F8F"></path><defs><linearGradient id="paint0_linear_187_7676" x1="132.5" y1="4" x2="132.5" y2="48" gradientUnits="userSpaceOnUse"><stop stop-color="#33BDFF"></stop><stop offset="1" stop-color="#33BDFF" stop-opacity="0"></stop></linearGradient></defs></svg>