<svg width="144" height="56" viewBox="0 0 144 56" fill="none" xmlns="http://www.w3.org/2000/svg">
<path d="M5.98 24C5.06 24 4.21333 23.7733 3.44 23.32C2.66667 22.8667 2.05333 22.2533 1.6 21.48C1.14667 20.7067 0.92 19.86 0.92 18.94V16.56H3.8V18.78C3.8 19.38 4.01333 19.9 4.44 20.34C4.86667 20.7667 5.38 20.98 5.98 20.98H12.34C12.7 20.98 13.0067 20.86 13.26 20.62C13.5267 20.38 13.66 20.06 13.66 19.66C13.66 19.18 13.4267 18.8 12.96 18.52L8.46 15.54V13.36L12.44 9.12L14.4 10.98L11.44 14.08L14.76 16.26C15.32 16.62 15.7533 17.1067 16.06 17.72C16.38 18.32 16.54 18.9867 16.54 19.72C16.54 20.4933 16.3467 21.2067 15.96 21.86C15.5867 22.5133 15.08 23.0333 14.44 23.42C13.8 23.8067 13.0933 24 12.32 24H5.98ZM17.46 24C16.4333 24 15.64 23.6467 15.08 22.94C14.52 22.22 14.24 21.3133 14.24 20.22V19.72H16.54V20.04C16.5267 20.3067 16.6067 20.5333 16.78 20.72C16.9533 20.8933 17.18 20.98 17.46 20.98H18.3C18.4333 20.98 18.5 21.0467 18.5 21.18V23.8C18.5 23.9333 18.4333 24 18.3 24H17.46ZM24.7008 24.04C23.9141 24.04 23.2008 23.8467 22.5608 23.46C21.9341 23.06 21.4408 22.5267 21.0808 21.86C20.7208 21.1933 20.5408 20.46 20.5408 19.66V18.36H19.3008V15.5H24.7008C25.5008 15.5 26.2341 15.68 26.9008 16.04C27.5674 16.4 28.0941 16.9 28.4808 17.54C28.8808 18.1667 29.0808 18.8733 29.0808 19.66C29.0808 20.4467 28.8808 21.18 28.4808 21.86C28.0941 22.5267 27.5608 23.06 26.8808 23.46C26.2141 23.8467 25.4874 24.04 24.7008 24.04ZM18.3008 24C18.1674 24 18.1008 23.9333 18.1008 23.8V21.18C18.1008 21.0467 18.1674 20.98 18.3008 20.98H19.6208C19.8741 20.98 20.0874 20.8933 20.2608 20.72C20.4474 20.5333 20.5408 20.3067 20.5408 20.04V18.76H22.8408V20.22C22.8408 21.3133 22.5541 22.22 21.9808 22.94C21.4208 23.6467 20.6341 24 19.6208 24H18.3008ZM24.7008 21.02C25.0874 21.02 25.4074 20.8933 25.6608 20.64C25.9141 20.3733 26.0408 20.0467 26.0408 19.66C26.0408 19.2867 25.9141 18.98 25.6608 18.74C25.4074 18.4867 25.0874 18.36 24.7008 18.36H23.3808V19.66C23.3808 20.0467 23.5008 20.3733 23.7408 20.64C23.9941 20.8933 24.3141 21.02 24.7008 21.02ZM34.387 24C33.6937 24 33.0604 23.8333 32.487 23.5C31.9137 23.1533 31.4604 22.6933 31.127 22.12C30.7937 21.5333 30.627 20.9 30.627 20.22V10.52H33.507V20.04C33.507 20.3067 33.5937 20.5333 33.767 20.72C33.9404 20.8933 34.1537 20.98 34.407 20.98H35.507C35.6404 20.98 35.707 21.0467 35.707 21.18V23.8C35.707 23.9333 35.6404 24 35.507 24H34.387ZM35.3078 21.18C35.3078 21.0467 35.3745 20.98 35.5078 20.98H36.8078C37.0745 20.98 37.2945 20.8933 37.4678 20.72C37.6411 20.5333 37.7278 20.3067 37.7278 20.04V16.54H40.6078V20.04C40.6078 20.3067 40.6945 20.5333 40.8678 20.72C41.0411 20.8933 41.2611 20.98 41.5278 20.98H42.8278C42.9611 20.98 43.0278 21.0467 43.0278 21.18V23.8C43.0278 23.9333 42.9611 24 42.8278 24H41.5278C40.5411 24 39.7545 23.6733 39.1678 23.02C38.5545 23.6733 37.7678 24 36.8078 24H35.5078C35.3745 24 35.3078 23.9333 35.3078 23.8V21.18ZM36.0678 25.72H38.6278V28.28H36.0678V25.72ZM39.6678 25.72H42.2478V28.28H39.6678V25.72ZM42.832 24C42.6987 24 42.632 23.9333 42.632 23.8V21.18C42.632 21.0467 42.6987 20.98 42.832 20.98H46.652C46.9054 20.98 47.1187 20.8933 47.292 20.72C47.4654 20.5333 47.552 20.3067 47.552 20.04V15.94H50.432V20.22C50.432 20.9 50.2654 21.5333 49.932 22.12C49.5987 22.6933 49.1454 23.1533 48.572 23.5C47.9987 23.8333 47.3654 24 46.672 24H42.832ZM46.332 29.3H48.892V31.86H46.332V29.3ZM44.512 25.72H47.072V28.28H44.512V25.72ZM48.092 25.72H50.652V28.28H48.092V25.72Z" fill="#415417"/>
<path d="M60.8238 24C59.9038 24 59.0571 23.7733 58.2838 23.32C57.5104 22.8667 56.8971 22.2533 56.4438 21.48C55.9904 20.7067 55.7638 19.86 55.7638 18.94V16.56H58.6438V18.78C58.6438 19.38 58.8571 19.9 59.2838 20.34C59.7104 20.7667 60.2238 20.98 60.8238 20.98H67.1838C67.5438 20.98 67.8504 20.86 68.1038 20.62C68.3704 20.38 68.5038 20.06 68.5038 19.66C68.5038 19.18 68.2704 18.8 67.8038 18.52L63.3038 15.54V13.36L67.2838 9.12L69.2438 10.98L66.2838 14.08L69.6038 16.26C70.1638 16.62 70.5971 17.1067 70.9038 17.72C71.2238 18.32 71.3838 18.9867 71.3838 19.72C71.3838 20.4933 71.1904 21.2067 70.8038 21.86C70.4304 22.5133 69.9238 23.0333 69.2838 23.42C68.6438 23.8067 67.9371 24 67.1638 24H60.8238ZM72.3038 24C71.2771 24 70.4838 23.6467 69.9238 22.94C69.3638 22.22 69.0838 21.3133 69.0838 20.22V19.72H71.3838V20.04C71.3704 20.3067 71.4504 20.5333 71.6238 20.72C71.7971 20.8933 72.0238 20.98 72.3038 20.98H73.1438C73.2771 20.98 73.3438 21.0467 73.3438 21.18V23.8C73.3438 23.9333 73.2771 24 73.1438 24H72.3038ZM73.1445 24C73.0112 24 72.9445 23.9333 72.9445 23.8V21.18C72.9445 21.0467 73.0112 20.98 73.1445 20.98H75.3045C75.5579 20.98 75.7712 20.8867 75.9445 20.7C76.1312 20.5133 76.2245 20.2933 76.2245 20.04V15.94H79.0845V20.22C79.0845 20.9 78.9179 21.5333 78.5845 22.12C78.2512 22.6933 77.7979 23.1533 77.2245 23.5C76.6512 23.8333 76.0179 24 75.3245 24H73.1445ZM73.1645 25.72H75.7245V28.28H73.1645V25.72ZM76.7645 25.72H79.3445V28.28H76.7645V25.72Z" fill="#53CEA2"/>
<path opacity="0.4" d="M5.172 46.27L2.143 40.108H3.391L5.731 44.905L8.11 40.108H9.371L6.316 46.27V49H5.172V46.27ZM12.5536 49.091C11.9556 49.091 11.4052 48.9437 10.9026 48.649C10.3999 48.3543 10.0012 47.9557 9.70656 47.453C9.4119 46.9417 9.26456 46.387 9.26456 45.789C9.26456 45.191 9.4119 44.6407 9.70656 44.138C10.0012 43.6353 10.3999 43.2367 10.9026 42.942C11.4052 42.6473 11.9556 42.5 12.5536 42.5C13.1602 42.5 13.7062 42.6473 14.1916 42.942C14.6769 43.2367 15.0539 43.6353 15.3226 44.138C15.5999 44.6407 15.7386 45.191 15.7386 45.789C15.7386 45.945 15.7256 46.088 15.6996 46.218H10.3566C10.3999 46.5733 10.5256 46.9027 10.7336 47.206C10.9416 47.5007 11.2059 47.7347 11.5266 47.908C11.8472 48.0727 12.1939 48.155 12.5666 48.155C12.9912 48.155 13.3812 48.051 13.7366 47.843C14.0919 47.635 14.3692 47.3533 14.5686 46.998L15.4136 47.401C15.1362 47.921 14.7462 48.3327 14.2436 48.636C13.7409 48.9393 13.1776 49.091 12.5536 49.091ZM14.7246 45.321C14.6552 44.801 14.4126 44.3633 13.9966 44.008C13.5892 43.644 13.1126 43.462 12.5666 43.462C12.0119 43.462 11.5266 43.6397 11.1106 43.995C10.7032 44.3503 10.4606 44.7923 10.3826 45.321H14.7246ZM19.0128 45.854L19.7148 44.918L22.5618 49H21.2358L19.0128 45.854ZM17.2058 39.731H18.3368V49H17.2058V39.731ZM18.3368 45.048L20.9238 42.591H22.3278L18.3368 46.595V45.048ZM26.4734 40.108H29.8014C30.3127 40.108 30.7851 40.2337 31.2184 40.485C31.6517 40.7363 31.9941 41.0787 32.2454 41.512C32.5054 41.9453 32.6354 42.4177 32.6354 42.929C32.6354 43.4403 32.5054 43.917 32.2454 44.359C31.9941 44.7923 31.6517 45.1347 31.2184 45.386C30.7851 45.6373 30.3127 45.763 29.8014 45.763H27.6044V49H26.4734V40.108ZM27.6044 44.723H29.7364C30.0484 44.723 30.3387 44.645 30.6074 44.489C30.8761 44.3243 31.0884 44.1033 31.2444 43.826C31.4091 43.5487 31.4914 43.2497 31.4914 42.929C31.4914 42.6083 31.4091 42.3137 31.2444 42.045C31.0884 41.7677 30.8761 41.551 30.6074 41.395C30.3387 41.2303 30.0484 41.148 29.7364 41.148H27.6044V44.723ZM36.9787 49.091C36.3807 49.091 35.8261 48.9437 35.3147 48.649C34.8121 48.3543 34.4134 47.9557 34.1187 47.453C33.8241 46.9417 33.6767 46.387 33.6767 45.789C33.6767 45.1997 33.8241 44.6537 34.1187 44.151C34.4134 43.6397 34.8121 43.2367 35.3147 42.942C35.8261 42.6473 36.3807 42.5 36.9787 42.5C37.5594 42.5 38.0707 42.6473 38.5127 42.942C38.9547 43.2367 39.2927 43.6353 39.5267 44.138C39.7694 44.632 39.8907 45.1823 39.8907 45.789C39.8907 46.3957 39.7694 46.9503 39.5267 47.453C39.2927 47.9557 38.9547 48.3543 38.5127 48.649C38.0707 48.9437 37.5594 49.091 36.9787 49.091ZM37.0307 48.025C37.4381 48.025 37.8107 47.9253 38.1487 47.726C38.4867 47.5267 38.7511 47.258 38.9417 46.92C39.1411 46.5733 39.2407 46.1963 39.2407 45.789C39.2407 45.3817 39.1411 45.009 38.9417 44.671C38.7511 44.333 38.4867 44.0643 38.1487 43.865C37.8107 43.6657 37.4381 43.566 37.0307 43.566C36.6234 43.566 36.2507 43.6657 35.9127 43.865C35.5747 44.0643 35.3061 44.333 35.1067 44.671C34.9074 45.009 34.8077 45.3817 34.8077 45.789C34.8077 46.1963 34.9074 46.5733 35.1067 46.92C35.3061 47.258 35.5747 47.5267 35.9127 47.726C36.2507 47.9253 36.6234 48.025 37.0307 48.025ZM39.4227 46.803L39.2407 46.764V45.139H40.3847V49H39.4227V46.803ZM39.2407 44.84L39.4227 44.788V42.591H40.3847V46.452H39.2407V44.84ZM41.6336 50.924H42.5566C43.1546 50.924 43.5706 50.6423 43.8046 50.079L46.5996 42.591H47.7436L44.8836 50.3C44.719 50.82 44.4416 51.2317 44.0516 51.535C43.6616 51.847 43.1806 52.003 42.6086 52.003H41.6336V50.924ZM41.3346 42.591H42.4916L44.7666 49H43.6226L41.3346 42.591ZM51.4768 49.091C50.8788 49.091 50.3241 48.9437 49.8128 48.649C49.3101 48.3543 48.9114 47.9557 48.6168 47.453C48.3221 46.9417 48.1748 46.387 48.1748 45.789C48.1748 45.1997 48.3221 44.6537 48.6168 44.151C48.9114 43.6397 49.3101 43.2367 49.8128 42.942C50.3241 42.6473 50.8788 42.5 51.4768 42.5C52.0574 42.5 52.5688 42.6473 53.0108 42.942C53.4528 43.2367 53.7908 43.6353 54.0248 44.138C54.2674 44.632 54.3888 45.1823 54.3888 45.789C54.3888 46.3957 54.2674 46.9503 54.0248 47.453C53.7908 47.9557 53.4528 48.3543 53.0108 48.649C52.5688 48.9437 52.0574 49.091 51.4768 49.091ZM51.5288 48.025C51.9361 48.025 52.3088 47.9253 52.6468 47.726C52.9848 47.5267 53.2491 47.258 53.4398 46.92C53.6391 46.5733 53.7388 46.1963 53.7388 45.789C53.7388 45.3817 53.6391 45.009 53.4398 44.671C53.2491 44.333 52.9848 44.0643 52.6468 43.865C52.3088 43.6657 51.9361 43.566 51.5288 43.566C51.1214 43.566 50.7488 43.6657 50.4108 43.865C50.0728 44.0643 49.8041 44.333 49.6048 44.671C49.4054 45.009 49.3058 45.3817 49.3058 45.789C49.3058 46.1963 49.4054 46.5733 49.6048 46.92C49.8041 47.258 50.0728 47.5267 50.4108 47.726C50.7488 47.9253 51.1214 48.025 51.5288 48.025ZM53.9208 46.803L53.7388 46.764V45.139H54.8828V49H53.9208V46.803ZM53.7388 44.84L53.9208 44.788V42.591H54.8828V46.452H53.7388V44.84ZM65.4902 45.295C65.4902 44.9917 65.4122 44.7143 65.2562 44.463C65.1088 44.203 64.9052 43.9993 64.6452 43.852C64.3938 43.696 64.1165 43.618 63.8132 43.618C63.5098 43.618 63.2282 43.696 62.9682 43.852C62.7168 43.9993 62.5132 44.203 62.3572 44.463C62.2098 44.7143 62.1362 44.9917 62.1362 45.295H61.4862C61.4862 44.8097 61.5902 44.3547 61.7982 43.93C62.0062 43.4967 62.3008 43.15 62.6822 42.89C63.0635 42.63 63.5012 42.5 63.9952 42.5C64.4805 42.5 64.9225 42.6257 65.3212 42.877C65.7285 43.1197 66.0448 43.4533 66.2702 43.878C66.5042 44.3027 66.6212 44.7663 66.6212 45.269V49H65.4902V45.295ZM56.5202 42.591H57.4692V44.307L57.6512 44.424V49H56.5202V42.591ZM61.0052 45.295C61.0052 44.9917 60.9272 44.7143 60.7712 44.463C60.6238 44.203 60.4202 43.9993 60.1602 43.852C59.9088 43.696 59.6315 43.618 59.3282 43.618C59.0248 43.618 58.7432 43.696 58.4832 43.852C58.2318 43.9993 58.0282 44.203 57.8722 44.463C57.7248 44.7143 57.6512 44.9917 57.6512 45.295H57.0142C57.0142 44.8097 57.1182 44.3547 57.3262 43.93C57.5342 43.4967 57.8288 43.15 58.2102 42.89C58.5915 42.63 59.0248 42.5 59.5102 42.5C59.9955 42.5 60.4375 42.6257 60.8362 42.877C61.2435 43.1197 61.5598 43.4533 61.7852 43.878C62.0192 44.3027 62.1362 44.7663 62.1362 45.269V49H61.0052V45.295ZM71.1037 49.091C70.5057 49.091 69.9511 48.9437 69.4397 48.649C68.9371 48.3543 68.5384 47.9557 68.2437 47.453C67.9491 46.9417 67.8017 46.387 67.8017 45.789C67.8017 45.1997 67.9491 44.6537 68.2437 44.151C68.5384 43.6397 68.9371 43.2367 69.4397 42.942C69.9511 42.6473 70.5057 42.5 71.1037 42.5C71.6844 42.5 72.1957 42.6473 72.6377 42.942C73.0797 43.2367 73.4177 43.6353 73.6517 44.138C73.8944 44.632 74.0157 45.1823 74.0157 45.789C74.0157 46.3957 73.8944 46.9503 73.6517 47.453C73.4177 47.9557 73.0797 48.3543 72.6377 48.649C72.1957 48.9437 71.6844 49.091 71.1037 49.091ZM71.1557 48.025C71.5631 48.025 71.9357 47.9253 72.2737 47.726C72.6117 47.5267 72.8761 47.258 73.0667 46.92C73.2661 46.5733 73.3657 46.1963 73.3657 45.789C73.3657 45.3817 73.2661 45.009 73.0667 44.671C72.8761 44.333 72.6117 44.0643 72.2737 43.865C71.9357 43.6657 71.5631 43.566 71.1557 43.566C70.7484 43.566 70.3757 43.6657 70.0377 43.865C69.6997 44.0643 69.4311 44.333 69.2317 44.671C69.0324 45.009 68.9327 45.3817 68.9327 45.789C68.9327 46.1963 69.0324 46.5733 69.2317 46.92C69.4311 47.258 69.6997 47.5267 70.0377 47.726C70.3757 47.9253 70.7484 48.025 71.1557 48.025ZM73.5477 46.803L73.3657 46.764V45.139H74.5097V49H73.5477V46.803ZM73.3657 44.84L73.5477 44.788V42.591H74.5097V46.452H73.3657V44.84ZM78.0841 45.854L78.7861 44.918L81.6331 49H80.3071L78.0841 45.854ZM76.2771 39.731H77.4081V49H76.2771V39.731ZM77.4081 45.048L79.9951 42.591H81.3991L77.4081 46.595V45.048Z" fill="black"/>
<g clip-path="url(#clip0_745_1864)">
<path d="M134.684 11.9769V12.1837H124.14V13.1897C124.137 15.0702 123.384 16.8731 122.046 18.2028C120.708 19.5325 118.893 20.2806 117.001 20.2829V30.7666H113.791C112.161 30.7688 110.578 30.2225 109.3 29.2166L108.012 28.2047L106.007 26.6327C106.004 26.6314 105.999 26.6314 105.996 26.6327V9H130.096L133.799 10.6292C134.063 10.7436 134.287 10.9321 134.444 11.1716C134.602 11.411 134.685 11.691 134.684 11.9769Z" fill="url(#paint0_linear_745_1864)"/>
<path d="M144 9V56L134.684 46.8933V11.9769C134.684 11.6917 134.6 11.4127 134.443 11.1741C134.286 10.9356 134.062 10.7477 133.799 10.6336L130.095 9H144Z" fill="url(#paint1_linear_745_1864)"/>
<path d="M124.14 29.268V46.76H106V26.627L109.3 29.2167C110.577 30.2216 112.158 30.7679 113.787 30.7668H116.997C119.457 30.7694 121.89 30.2589 124.14 29.268Z" fill="#53CEA2"/>
<path style="mix-blend-mode:overlay" opacity="0.5" d="M134.684 11.9769V12.1837H132.766C132.769 11.8946 132.745 11.6059 132.694 11.3214C132.533 10.4826 130.257 9.08945 130.109 9.00586L133.799 10.6292C134.063 10.7436 134.287 10.9321 134.444 11.1716C134.602 11.411 134.685 11.6909 134.684 11.9769Z" fill="url(#paint2_linear_745_1864)"/>
<path style="mix-blend-mode:overlay" opacity="0.5" d="M117.001 28.5011V30.7668H113.791C112.161 30.7689 110.578 30.2226 109.3 29.2167L106.007 26.6328C106.316 26.7721 112.063 29.4 117.001 28.5011Z" fill="url(#paint3_linear_745_1864)"/>
<path style="mix-blend-mode:overlay" opacity="0.38" d="M141.639 9V53.6903L144 56V9H141.639Z" fill="url(#paint4_linear_745_1864)"/>
<path style="mix-blend-mode:overlay" opacity="0.38" d="M121.793 30.1035V46.7595H124.14V29.2676C123.378 29.6006 122.594 29.8799 121.793 30.1035Z" fill="url(#paint5_linear_745_1864)"/>
<path style="mix-blend-mode:overlay" opacity="0.5" d="M124.14 12.1836V13.1896C124.137 15.0701 123.384 16.873 122.046 18.2027C120.708 19.5324 118.893 20.2805 117.001 20.2828V30.7666H113.791C112.161 30.7687 110.578 30.2224 109.3 29.2165L108.012 28.2047L124.14 12.1836Z" fill="url(#paint6_linear_745_1864)"/>
</g>
<defs>
<linearGradient id="paint0_linear_745_1864" x1="125.041" y1="26.6972" x2="110.159" y2="2.29869" gradientUnits="userSpaceOnUse">
<stop stop-color="#FAB313"/>
<stop offset="0.19" stop-color="#FAB312"/>
<stop offset="0.54" stop-color="#EE8E0B"/>
<stop offset="1" stop-color="#DC5500"/>
</linearGradient>
<linearGradient id="paint1_linear_745_1864" x1="136.891" y1="6.44103" x2="139.948" y2="56.0904" gradientUnits="userSpaceOnUse">
<stop stop-color="#53CEA2"/>
<stop offset="1" stop-color="#53CEA2"/>
</linearGradient>
<linearGradient id="paint2_linear_745_1864" x1="132.043" y1="9.17597" x2="133.498" y2="14.1948" gradientUnits="userSpaceOnUse">
<stop/>
<stop offset="1" stop-opacity="0"/>
</linearGradient>
<linearGradient id="paint3_linear_745_1864" x1="109.11" y1="30.7213" x2="114.99" y2="25.6954" gradientUnits="userSpaceOnUse">
<stop/>
<stop offset="1" stop-opacity="0"/>
</linearGradient>
<linearGradient id="paint4_linear_745_1864" x1="141.296" y1="6.91176" x2="144.308" y2="55.8235" gradientUnits="userSpaceOnUse">
<stop stop-color="white"/>
<stop offset="0.2" stop-color="white" stop-opacity="0.76"/>
<stop offset="0.49" stop-color="white" stop-opacity="0.44"/>
<stop offset="0.73" stop-color="white" stop-opacity="0.2"/>
<stop offset="0.91" stop-color="white" stop-opacity="0.06"/>
<stop offset="1" stop-color="white" stop-opacity="0"/>
</linearGradient>
<linearGradient id="paint5_linear_745_1864" x1="121.459" y1="32.8868" x2="127.111" y2="52.3632" gradientUnits="userSpaceOnUse">
<stop stop-color="white"/>
<stop offset="0.2" stop-color="white" stop-opacity="0.76"/>
<stop offset="0.49" stop-color="white" stop-opacity="0.44"/>
<stop offset="0.73" stop-color="white" stop-opacity="0.2"/>
<stop offset="0.91" stop-color="white" stop-opacity="0.06"/>
<stop offset="1" stop-color="white" stop-opacity="0"/>
</linearGradient>
<linearGradient id="paint6_linear_745_1864" x1="125.145" y1="16.6592" x2="112.072" y2="30.0991" gradientUnits="userSpaceOnUse">
<stop/>
<stop offset="1" stop-opacity="0"/>
</linearGradient>
<clipPath id="clip0_745_1864">
<rect width="38" height="47" fill="white" transform="translate(106 9)"/>
</clipPath>
</defs>
</svg>
